# Blender v3.1.2 OBJ File: ''
# www.blender.org
mtllib Caution.mtl
o Plane.001
v -0.028752 0.473403 0.126932
v -0.028753 0.473403 -0.126932
v 0.010935 0.460109 0.126932
v 0.010935 0.460109 -0.126932
v -0.196365 -0.026978 -0.248672
v -0.196365 -0.026978 0.248672
v -0.156677 -0.040272 -0.248672
v -0.156677 -0.040272 0.248672
v -0.156677 -0.040272 -0.126932
v -0.156677 -0.040272 0.126932
v -0.196365 -0.026978 -0.126932
v -0.196365 -0.026978 0.126932
v -0.090103 0.290252 -0.248672
v -0.049011 0.412923 -0.172519
v -0.049011 0.412923 0.172519
v -0.090102 0.290252 0.248672
v -0.050414 0.276958 0.248672
v -0.009323 0.399629 0.172519
v -0.009323 0.399629 -0.172519
v -0.050415 0.276958 -0.248672
v -0.297112 -0.327743 -0.219798
v -0.281532 -0.281231 -0.248672
v -0.281532 -0.281231 0.248672
v -0.297112 -0.327743 0.219798
v -0.241844 -0.294525 -0.248672
v -0.257424 -0.341037 -0.219798
v -0.257424 -0.341037 0.219798
v -0.241844 -0.294525 0.248672
v -0.281532 -0.281231 -0.126932
v -0.297112 -0.327743 -0.155806
v -0.297112 -0.327743 0.155806
v -0.281532 -0.281231 0.126932
v -0.257424 -0.341037 -0.155806
v -0.241844 -0.294525 -0.126932
v -0.241844 -0.294525 0.126932
v -0.257424 -0.341037 0.155806
v 0.047896 0.473403 -0.126932
v 0.047896 0.473403 0.126932
v 0.008208 0.460109 -0.126932
v 0.008208 0.460109 0.126932
v 0.215508 -0.026978 0.248672
v 0.215508 -0.026978 -0.248672
v 0.175820 -0.040272 0.248672
v 0.175820 -0.040272 -0.248672
v 0.175820 -0.040272 0.126932
v 0.175820 -0.040272 -0.126932
v 0.215508 -0.026978 0.126932
v 0.215508 -0.026978 -0.126932
v 0.109246 0.290252 0.248672
v 0.068155 0.412923 0.172519
v 0.068155 0.412923 -0.172519
v 0.109246 0.290252 -0.248672
v 0.069558 0.276958 -0.248672
v 0.028467 0.399629 -0.172519
v 0.028467 0.399629 0.172519
v 0.069558 0.276958 0.248672
v 0.316255 -0.327743 0.219798
v 0.300675 -0.281231 0.248672
v 0.300675 -0.281231 -0.248672
v 0.316255 -0.327743 -0.219798
v 0.260987 -0.294525 0.248672
v 0.276567 -0.341037 0.219798
v 0.276567 -0.341037 -0.219798
v 0.260987 -0.294525 -0.248672
v 0.300675 -0.281231 0.126932
v 0.316255 -0.327743 0.155806
v 0.316255 -0.327743 -0.155806
v 0.300675 -0.281231 -0.126932
v 0.276567 -0.341037 0.155806
v 0.260987 -0.294525 0.126932
v 0.260987 -0.294525 -0.126932
v 0.276567 -0.341037 -0.155806
v 0.010149 0.488195 -0.132725
v 0.010149 0.488195 0.132725
v 0.017062 0.486820 -0.132725
v 0.017062 0.486820 0.132725
v 0.022922 0.482904 -0.132725
v 0.022922 0.482904 0.132725
v 0.026838 0.477043 -0.132725
v 0.026838 0.477043 0.132725
v 0.028213 0.470131 -0.132725
v 0.028213 0.470130 0.132725
v 0.026838 0.463218 -0.132725
v 0.026838 0.463218 0.132725
v 0.022922 0.457357 -0.132725
v 0.022922 0.457357 0.132725
v 0.017062 0.453441 -0.132725
v 0.017062 0.453441 0.132725
v 0.010149 0.452066 -0.132725
v 0.010149 0.452066 0.132725
v 0.003236 0.453441 -0.132725
v 0.003236 0.453441 0.132725
v -0.002625 0.457357 -0.132725
v -0.002625 0.457357 0.132725
v -0.006540 0.463218 -0.132725
v -0.006541 0.463218 0.132725
v -0.007916 0.470130 -0.132725
v -0.007916 0.470131 0.132725
v -0.006540 0.477043 -0.132725
v -0.006541 0.477043 0.132725
v -0.002625 0.482904 -0.132725
v -0.002625 0.482904 0.132725
v 0.003236 0.486820 -0.132725
v 0.003236 0.486820 0.132725
vt 0.899759 0.712846
vt 0.899759 0.737615
vt 0.923341 0.737615
vt 0.927655 0.731741
vt 0.927655 0.718721
vt 0.923341 0.712846
vt 0.899759 0.737615
vt 0.923341 0.737615
vt 0.923341 0.787154
vt 0.923341 0.787154
vt 0.899759 0.787154
vt 0.899759 0.787154
vt 0.864725 0.712846
vt 0.864725 0.712846
vt 0.899759 0.712846
vt 0.853347 0.771660
vt 0.853347 0.771660
vt 0.853347 0.762385
vt 0.853347 0.762385
vt 0.927655 0.718721
vt 0.927655 0.731741
vt 0.864725 0.787154
vt 0.899759 0.762385
vt 0.853347 0.737615
vt 0.853347 0.737615
vt 0.927655 0.768259
vt 0.927655 0.768259
vt 0.927655 0.781279
vt 0.927655 0.781279
vt 0.923341 0.762385
vt 0.899759 0.762385
vt 0.923341 0.712846
vt 0.769695 1.083447
vt 0.769695 -0.074428
vt 0.230305 -0.074428
vt 0.230306 1.083447
vt 0.853347 0.728340
vt 0.853347 0.728340
vt -0.028357 -0.074428
vt -0.028357 0.659639
vt 0.133447 0.943498
vt 0.923341 0.762385
vt 0.864725 0.787154
vt 1.028358 0.659639
vt 1.028358 -0.074428
vt 0.866553 0.943498
vt 0.899759 0.712846
vt 0.899759 0.737615
vt 0.923341 0.737615
vt 0.927655 0.731741
vt 0.927655 0.718721
vt 0.923341 0.712846
vt 0.899759 0.737615
vt 0.923341 0.737615
vt 0.923341 0.787154
vt 0.923341 0.787154
vt 0.899759 0.787154
vt 0.899759 0.787154
vt 0.864725 0.712846
vt 0.864725 0.712846
vt 0.899759 0.712846
vt 0.853347 0.771660
vt 0.853347 0.771660
vt 0.853347 0.762385
vt 0.853347 0.762385
vt 0.927655 0.718721
vt 0.927655 0.731741
vt 0.864725 0.787154
vt 0.899759 0.762385
vt 0.853347 0.737615
vt 0.853347 0.737615
vt 0.927655 0.768259
vt 0.927655 0.768259
vt 0.927655 0.781279
vt 0.927655 0.781279
vt 0.923341 0.762385
vt 0.899759 0.762385
vt 0.923341 0.712846
vt 0.230305 1.083447
vt 0.230305 -0.074428
vt 0.769695 -0.074428
vt 0.769695 1.083447
vt 0.853347 0.728340
vt 0.853347 0.728340
vt 1.028358 -0.074428
vt 1.028358 0.659639
vt 0.866553 0.943498
vt 0.923341 0.762385
vt 0.864725 0.787154
vt -0.028357 0.659639
vt -0.028357 -0.074428
vt 0.133447 0.943498
vt 0.927655 0.750000
vt 0.927655 0.787154
vt 0.923011 0.787154
vt 0.923011 0.750000
vt 0.918367 0.787154
vt 0.918367 0.750000
vt 0.913722 0.787154
vt 0.913722 0.750000
vt 0.909078 0.787154
vt 0.909078 0.750000
vt 0.904434 0.787154
vt 0.904434 0.750000
vt 0.899790 0.787154
vt 0.899790 0.750000
vt 0.895146 0.787154
vt 0.895146 0.750000
vt 0.890501 0.787154
vt 0.890501 0.750000
vt 0.885857 0.787154
vt 0.885857 0.750000
vt 0.881213 0.787154
vt 0.881213 0.750000
vt 0.876569 0.787154
vt 0.876569 0.750000
vt 0.871924 0.787154
vt 0.871924 0.750000
vt 0.867280 0.787154
vt 0.867280 0.750000
vt 0.862636 0.787154
vt 0.862636 0.750000
vt 0.878749 0.747899
vt 0.871924 0.749257
vt 0.865100 0.747899
vt 0.859314 0.744034
vt 0.855448 0.738248
vt 0.854091 0.731423
vt 0.855448 0.724598
vt 0.859314 0.718813
vt 0.865100 0.714947
vt 0.871924 0.713589
vt 0.878749 0.714947
vt 0.884535 0.718813
vt 0.888401 0.724598
vt 0.889758 0.731423
vt 0.888401 0.738248
vt 0.884535 0.744034
vt 0.857992 0.787154
vt 0.857992 0.750000
vt 0.853347 0.787154
vt 0.853347 0.750000
vt 0.909078 0.749257
vt 0.915903 0.747899
vt 0.921689 0.744034
vt 0.925555 0.738248
vt 0.926912 0.731423
vt 0.925555 0.724598
vt 0.921689 0.718813
vt 0.915903 0.714947
vt 0.909078 0.713589
vt 0.902254 0.714947
vt 0.896468 0.718813
vt 0.892602 0.724598
vt 0.891244 0.731423
vt 0.892602 0.738248
vt 0.896468 0.744034
vt 0.902254 0.747899
vn 0.9482 -0.3176 -0.0000
vn -0.0000 0.0000 1.0000
vn -0.0000 -0.0000 -1.0000
vn 0.1847 0.5514 0.8136
vn -0.3176 -0.9482 0.0000
vn 0.3176 0.9482 0.0000
vn -0.9482 0.3176 0.0000
vn 0.1847 0.5514 -0.8136
vn 0.1611 0.4810 -0.8618
vn 0.1611 0.4810 0.8618
vn -0.1611 -0.4810 0.8618
vn -0.1611 -0.4810 -0.8618
vn -0.9482 -0.3176 0.0000
vn -0.1847 0.5514 -0.8136
vn 0.3176 -0.9482 -0.0000
vn -0.3176 0.9482 0.0000
vn 0.9482 0.3176 0.0000
vn -0.1847 0.5514 0.8136
vn -0.1611 0.4810 0.8618
vn -0.1611 0.4810 -0.8618
vn 0.1611 -0.4810 -0.8618
vn 0.1611 -0.4810 0.8618
vn 0.1951 0.9808 0.0000
vn 0.5556 0.8315 0.0000
vn 0.8315 0.5556 -0.0000
vn 0.9808 0.1951 -0.0000
vn 0.9808 -0.1951 -0.0000
vn 0.8315 -0.5556 -0.0000
vn 0.5556 -0.8315 0.0000
vn 0.1951 -0.9808 -0.0000
vn -0.1951 -0.9808 -0.0000
vn -0.5556 -0.8315 0.0000
vn -0.8315 -0.5556 -0.0000
vn -0.9808 -0.1951 -0.0000
vn -0.9808 0.1951 -0.0000
vn -0.8315 0.5556 -0.0000
vn -0.5556 0.8315 -0.0000
vn -0.1951 0.9808 -0.0000
g Plane.001_Plane.001_Material.001
usemtl Material.001
s off
f 7/1/1 9/2/1 34/3/1 33/4/1 26/5/1 25/6/1
f 9/2/2 11/7/2 29/8/2 34/3/2
f 23/9/2 28/10/2 8/11/2 6/12/2
f 13/13/3 20/14/3 7/1/3 5/15/3
f 15/16/4 18/17/4 3/18/4 1/19/4
f 21/20/5 26/5/5 33/4/5 30/21/5
f 3/18/1 18/17/1 17/22/1 8/11/1 10/23/1
f 1/19/6 3/18/6 4/24/6 2/25/6
f 31/26/5 36/27/5 27/28/5 24/29/5
f 10/23/1 8/11/1 28/10/1 27/28/1 36/27/1 35/30/1
f 10/23/5 12/31/5 11/7/5 9/2/5
f 5/15/3 7/1/3 25/6/3 22/32/3
f 2/33/7 11/34/7 12/35/7 1/36/7
f 2/25/8 4/24/8 19/37/8 14/38/8
f 4/24/1 3/18/1 10/23/1 9/2/1
f 1/36/7 12/35/7 6/39/7 16/40/7 15/41/7
f 12/31/7 32/42/7 31/26/7 24/29/7 23/9/7 6/12/7
f 19/37/1 4/24/1 9/2/1 7/1/1 20/14/1
f 6/12/2 8/11/2 17/22/2 16/43/2
f 35/30/3 32/42/3 12/31/3 10/23/3
f 13/13/9 14/38/9 19/37/9 20/14/9
f 17/22/10 18/17/10 15/16/10 16/43/10
f 13/44/7 5/45/7 11/34/7 2/33/7 14/46/7
f 23/9/11 24/29/11 27/28/11 28/10/11
f 25/6/12 26/5/12 21/20/12 22/32/12
f 29/8/11 30/21/11 33/4/11 34/3/11
f 31/26/12 32/42/12 35/30/12 36/27/12
f 5/15/7 22/32/7 21/20/7 30/21/7 29/8/7 11/7/7
f 43/47/13 45/48/13 70/49/13 69/50/13 62/51/13 61/52/13
f 45/48/3 47/53/3 65/54/3 70/49/3
f 59/55/3 64/56/3 44/57/3 42/58/3
f 49/59/2 56/60/2 43/47/2 41/61/2
f 51/62/14 54/63/14 39/64/14 37/65/14
f 57/66/15 62/51/15 69/50/15 66/67/15
f 39/64/13 54/63/13 53/68/13 44/57/13 46/69/13
f 37/65/16 39/64/16 40/70/16 38/71/16
f 67/72/15 72/73/15 63/74/15 60/75/15
f 46/69/13 44/57/13 64/56/13 63/74/13 72/73/13 71/76/13
f 46/69/15 48/77/15 47/53/15 45/48/15
f 41/61/2 43/47/2 61/52/2 58/78/2
f 38/79/17 47/80/17 48/81/17 37/82/17
f 38/71/18 40/70/18 55/83/18 50/84/18
f 40/70/13 39/64/13 46/69/13 45/48/13
f 37/82/17 48/81/17 42/85/17 52/86/17 51/87/17
f 48/77/17 68/88/17 67/72/17 60/75/17 59/55/17 42/58/17
f 55/83/13 40/70/13 45/48/13 43/47/13 56/60/13
f 42/58/3 44/57/3 53/68/3 52/89/3
f 71/76/2 68/88/2 48/77/2 46/69/2
f 49/59/19 50/84/19 55/83/19 56/60/19
f 53/68/20 54/63/20 51/62/20 52/89/20
f 49/90/17 41/91/17 47/80/17 38/79/17 50/92/17
f 59/55/21 60/75/21 63/74/21 64/56/21
f 61/52/22 62/51/22 57/66/22 58/78/22
f 65/54/21 66/67/21 69/50/21 70/49/21
f 67/72/22 68/88/22 71/76/22 72/73/22
f 41/61/17 58/78/17 57/66/17 66/67/17 65/54/17 47/53/17
f 73/93/23 74/94/23 76/95/23 75/96/23
f 75/96/24 76/95/24 78/97/24 77/98/24
f 77/98/25 78/97/25 80/99/25 79/100/25
f 79/100/26 80/99/26 82/101/26 81/102/26
f 81/102/27 82/101/27 84/103/27 83/104/27
f 83/104/28 84/103/28 86/105/28 85/106/28
f 85/106/29 86/105/29 88/107/29 87/108/29
f 87/108/30 88/107/30 90/109/30 89/110/30
f 89/110/31 90/109/31 92/111/31 91/112/31
f 91/112/32 92/111/32 94/113/32 93/114/32
f 93/114/33 94/113/33 96/115/33 95/116/33
f 95/116/34 96/115/34 98/117/34 97/118/34
f 97/118/35 98/117/35 100/119/35 99/120/35
f 99/120/36 100/119/36 102/121/36 101/122/36
f 76/123/2 74/124/2 104/125/2 102/126/2 100/127/2 98/128/2 96/129/2 94/130/2 92/131/2 90/132/2 88/133/2 86/134/2 84/135/2 82/136/2 80/137/2 78/138/2
f 101/122/37 102/121/37 104/139/37 103/140/37
f 103/140/38 104/139/38 74/141/38 73/142/38
f 73/143/3 75/144/3 77/145/3 79/146/3 81/147/3 83/148/3 85/149/3 87/150/3 89/151/3 91/152/3 93/153/3 95/154/3 97/155/3 99/156/3 101/157/3 103/158/3
