# Blender v3.1.2 OBJ File: 'Reiz.blend'
# www.blender.org
mtllib Cop.mtl
o Gold_Cube
v 0.164026 0.133821 -0.078355
v 0.153546 0.160009 -0.052167
v 0.192064 0.136905 -0.052167
v 0.158454 0.146334 -0.074856
v 0.177688 0.134797 -0.074856
v 0.171781 0.146751 -0.071458
v 0.168608 0.157487 -0.052167
v 0.154607 0.155946 -0.065244
v 0.169073 0.153518 -0.064690
v 0.187980 0.135929 -0.065244
v 0.182747 0.149006 -0.052167
v 0.179027 0.147548 -0.064690
v 0.237180 0.003299 -0.071359
v 0.219707 0.029487 -0.107181
v 0.251038 0.026403 -0.071359
v 0.233905 0.007362 -0.089246
v 0.249550 0.005822 -0.071359
v 0.245779 0.009790 -0.088489
v 0.234411 0.028511 -0.102396
v 0.227492 0.016974 -0.102396
v 0.241263 0.016558 -0.097747
v 0.254636 0.014302 -0.071359
v 0.245912 0.027379 -0.089246
v 0.249360 0.015761 -0.088489
v 0.192064 0.136905 0.052167
v 0.153546 0.160009 0.052167
v 0.164026 0.133821 0.078355
v 0.182747 0.149006 0.052167
v 0.187980 0.135929 0.065244
v 0.179027 0.147548 0.064690
v 0.154607 0.155946 0.065244
v 0.168608 0.157487 0.052167
v 0.169073 0.153518 0.064690
v 0.177688 0.134797 0.074856
v 0.158454 0.146334 0.074856
v 0.171781 0.146751 0.071458
v 0.251038 0.026403 0.071359
v 0.219707 0.029487 0.107181
v 0.237180 0.003299 0.071359
v 0.245912 0.027379 0.089246
v 0.254636 0.014302 0.071359
v 0.249360 0.015761 0.088489
v 0.227491 0.016974 0.102396
v 0.234411 0.028511 0.102396
v 0.241263 0.016558 0.097747
v 0.249550 0.005822 0.071359
v 0.233905 0.007362 0.089246
v 0.245779 0.009790 0.088489
v -0.164026 0.133821 -0.078355
v -0.192064 0.136905 -0.052167
v -0.153546 0.160009 -0.052167
v -0.177688 0.134797 -0.074856
v -0.158454 0.146334 -0.074856
v -0.171781 0.146751 -0.071458
v -0.182747 0.149006 -0.052167
v -0.187980 0.135929 -0.065244
v -0.179027 0.147548 -0.064690
v -0.154607 0.155946 -0.065244
v -0.168608 0.157487 -0.052167
v -0.169073 0.153518 -0.064690
v -0.251038 0.026403 -0.071359
v -0.219707 0.029487 -0.107181
v -0.237180 0.003299 -0.071359
v -0.245912 0.027379 -0.089246
v -0.254636 0.014302 -0.071359
v -0.249360 0.015761 -0.088489
v -0.227491 0.016974 -0.102396
v -0.234411 0.028511 -0.102396
v -0.241263 0.016558 -0.097747
v -0.249550 0.005822 -0.071359
v -0.233905 0.007362 -0.089246
v -0.245779 0.009790 -0.088489
v -0.192064 0.136905 0.052167
v -0.164026 0.133821 0.078355
v -0.153546 0.160009 0.052167
v -0.187980 0.135929 0.065244
v -0.182747 0.149006 0.052167
v -0.179027 0.147548 0.064690
v -0.158454 0.146334 0.074856
v -0.177688 0.134797 0.074856
v -0.171781 0.146751 0.071458
v -0.168608 0.157487 0.052167
v -0.154607 0.155946 0.065244
v -0.169073 0.153518 0.064690
v -0.237180 0.003299 0.071359
v -0.219707 0.029487 0.107181
v -0.251038 0.026403 0.071359
v -0.233905 0.007362 0.089246
v -0.249550 0.005822 0.071359
v -0.245779 0.009790 0.088489
v -0.234411 0.028511 0.102396
v -0.227492 0.016974 0.102396
v -0.241263 0.016558 0.097747
v -0.254636 0.014302 0.071359
v -0.245912 0.027379 0.089246
v -0.249360 0.015761 0.088489
vt 0.506220 0.432921
vt 0.509829 0.432921
vt 0.509829 0.435589
vt 0.506220 0.435589
vt 0.510619 0.424906
vt 0.513445 0.424906
vt 0.513445 0.427574
vt 0.510619 0.427574
vt 0.510698 0.436500
vt 0.513366 0.436537
vt 0.513366 0.439989
vt 0.510698 0.440026
vt 0.514328 0.432921
vt 0.517752 0.432921
vt 0.517752 0.435589
vt 0.514328 0.435589
vt 0.510619 0.432921
vt 0.513445 0.432921
vt 0.513445 0.435589
vt 0.510619 0.435589
vt 0.513366 0.431973
vt 0.513686 0.431967
vt 0.513697 0.432109
vt 0.513391 0.432111
vt 0.514036 0.431971
vt 0.514036 0.432133
vt 0.514160 0.432921
vt 0.514155 0.432601
vt 0.514316 0.432587
vt 0.514036 0.432921
vt 0.514036 0.432601
vt 0.513469 0.432587
vt 0.513795 0.432601
vt 0.513785 0.432921
vt 0.513556 0.432251
vt 0.513857 0.432251
vt 0.513795 0.432251
vt 0.509804 0.432587
vt 0.509894 0.432601
vt 0.509923 0.432921
vt 0.509755 0.432251
vt 0.509860 0.432251
vt 0.510698 0.432011
vt 0.510673 0.432125
vt 0.510367 0.432131
vt 0.510378 0.432025
vt 0.510693 0.432251
vt 0.510425 0.432251
vt 0.510340 0.432921
vt 0.510425 0.432601
vt 0.510693 0.432587
vt 0.510028 0.432921
vt 0.510028 0.432601
vt 0.509922 0.432251
vt 0.513785 0.435589
vt 0.513795 0.435910
vt 0.513469 0.435924
vt 0.514036 0.435589
vt 0.514036 0.435910
vt 0.514316 0.435924
vt 0.514155 0.435910
vt 0.514160 0.435589
vt 0.513932 0.436552
vt 0.514036 0.436496
vt 0.514036 0.436348
vt 0.513870 0.436401
vt 0.513391 0.436399
vt 0.513697 0.436402
vt 0.513686 0.436543
vt 0.513469 0.436259
vt 0.513795 0.436259
vt 0.513717 0.436326
vt 0.514036 0.436378
vt 0.513857 0.436259
vt 0.510693 0.435924
vt 0.510425 0.435910
vt 0.510340 0.435589
vt 0.510838 0.436259
vt 0.510527 0.436259
vt 0.510378 0.436486
vt 0.510367 0.436380
vt 0.510673 0.436386
vt 0.509755 0.436170
vt 0.509804 0.436259
vt 0.509894 0.436259
vt 0.509860 0.436083
vt 0.509923 0.435589
vt 0.509894 0.435910
vt 0.509804 0.435924
vt 0.510028 0.435589
vt 0.510028 0.435910
vt 0.510347 0.436319
vt 0.510028 0.436427
vt 0.510028 0.436393
vt 0.513366 0.428522
vt 0.513391 0.428384
vt 0.513697 0.428386
vt 0.513686 0.428528
vt 0.513469 0.428244
vt 0.513795 0.428244
vt 0.513785 0.427574
vt 0.513795 0.427894
vt 0.513469 0.427908
vt 0.514036 0.427574
vt 0.514036 0.427894
vt 0.517764 0.432587
vt 0.517925 0.432601
vt 0.517920 0.432921
vt 0.513932 0.428536
vt 0.514036 0.428481
vt 0.514036 0.428332
vt 0.513870 0.428386
vt 0.514036 0.428363
vt 0.510693 0.427908
vt 0.510425 0.427894
vt 0.510340 0.427574
vt 0.510838 0.428244
vt 0.510527 0.428244
vt 0.510698 0.428484
vt 0.510378 0.428470
vt 0.510367 0.428364
vt 0.510673 0.428370
vt 0.506294 0.432341
vt 0.506245 0.432251
vt 0.506154 0.432251
vt 0.506189 0.432428
vt 0.506126 0.432921
vt 0.506154 0.432601
vt 0.506245 0.432587
vt 0.506021 0.432921
vt 0.506021 0.432601
vt 0.506127 0.432601
vt 0.506189 0.432251
vt 0.513469 0.424571
vt 0.513795 0.424585
vt 0.513785 0.424906
vt 0.513556 0.424236
vt 0.513857 0.424236
vt 0.513686 0.439983
vt 0.513697 0.440124
vt 0.513391 0.440127
vt 0.514036 0.439987
vt 0.514036 0.440148
vt 0.517920 0.435589
vt 0.517925 0.435910
vt 0.517764 0.435924
vt 0.514104 0.424906
vt 0.514036 0.424906
vt 0.514036 0.424585
vt 0.514020 0.424585
vt 0.513717 0.440200
vt 0.513857 0.440267
vt 0.506245 0.435924
vt 0.506154 0.435910
vt 0.506126 0.435589
vt 0.506294 0.436259
vt 0.506189 0.436259
vt 0.510673 0.440140
vt 0.510367 0.440146
vt 0.510378 0.440040
vt 0.510838 0.424325
vt 0.510693 0.424236
vt 0.510425 0.424236
vt 0.510527 0.424412
vt 0.510340 0.424906
vt 0.510425 0.424585
vt 0.510693 0.424571
vt 0.506087 0.435589
vt 0.506021 0.435589
vt 0.506021 0.435910
vt 0.506127 0.435910
vt 0.506127 0.436259
vt 0.506021 0.435589
vt 0.510838 0.424236
vt 0.514036 0.436539
vt 0.509755 0.436259
vt 0.514036 0.424906
vt 0.514036 0.428524
vn -0.1065 -0.9869 -0.1212
vn 0.1065 -0.9869 -0.1212
vn 0.1065 -0.9869 0.1212
vn -0.1065 -0.9869 0.1212
vn -0.9154 0.3798 0.1335
vn -0.8285 0.5452 0.1275
vn -0.8285 0.5452 -0.1275
vn -0.9154 0.3798 -0.1335
vn 0.1388 0.0234 0.9900
vn 0.1146 0.3177 0.9412
vn -0.1146 0.3177 0.9412
vn -0.1388 0.0234 0.9900
vn 0.0807 0.9858 -0.1469
vn -0.0807 0.9858 -0.1469
vn -0.0807 0.9858 0.1469
vn 0.0807 0.9858 0.1469
vn 0.9154 0.3798 -0.1335
vn 0.8285 0.5452 -0.1275
vn 0.8285 0.5452 0.1275
vn 0.9154 0.3798 0.1335
vn 0.1146 0.3177 -0.9412
vn 0.0864 0.5192 -0.8503
vn 0.3421 0.5704 -0.7467
vn 0.4306 0.4343 -0.7912
vn 0.0748 0.8605 -0.5039
vn 0.3061 0.8388 -0.4504
vn 0.3369 0.9318 -0.1351
vn 0.6634 0.7360 -0.1351
vn 0.5959 0.6649 -0.4504
vn 0.7245 0.5242 -0.4476
vn 0.1062 -0.8921 -0.4392
vn 0.5129 -0.7217 -0.4649
vn 0.5767 -0.8038 -0.1459
vn 0.1475 -0.5294 -0.8354
vn 0.5305 -0.3182 -0.7857
vn 0.1388 0.0234 -0.9900
vn 0.4954 0.1872 -0.8483
vn 0.8115 0.3574 -0.4623
vn 0.8782 -0.1127 -0.4649
vn 0.9807 -0.1304 -0.1459
vn 0.6634 0.7360 0.1351
vn 0.5959 0.6649 0.4504
vn 0.7245 0.5242 0.4476
vn 0.3369 0.9318 0.1351
vn 0.3061 0.8388 0.4504
vn 0.0748 0.8605 0.5039
vn 0.0864 0.5192 0.8503
vn 0.3421 0.5704 0.7467
vn 0.4306 0.4343 0.7912
vn 0.8115 0.3574 0.4623
vn 0.8782 -0.1127 0.4649
vn 0.9807 -0.1304 0.1459
vn 0.4954 0.1872 0.8483
vn 0.5305 -0.3182 0.7857
vn 0.1475 -0.5294 0.8354
vn 0.1062 -0.8921 0.4392
vn 0.5129 -0.7216 0.4649
vn 0.5767 -0.8038 0.1459
vn -0.1146 0.3177 -0.9412
vn -0.4306 0.4343 -0.7912
vn -0.3421 0.5704 -0.7467
vn -0.0864 0.5192 -0.8503
vn -0.7245 0.5242 -0.4476
vn -0.5959 0.6649 -0.4504
vn -0.6634 0.7360 -0.1351
vn -0.3369 0.9318 -0.1351
vn -0.3061 0.8388 -0.4504
vn -0.0748 0.8605 -0.5039
vn -0.8115 0.3574 -0.4623
vn -0.8782 -0.1127 -0.4649
vn -0.9807 -0.1304 -0.1459
vn -0.4954 0.1872 -0.8483
vn -0.5305 -0.3182 -0.7857
vn -0.1388 0.0234 -0.9900
vn -0.1475 -0.5294 -0.8354
vn -0.1062 -0.8921 -0.4392
vn -0.5129 -0.7216 -0.4649
vn -0.5767 -0.8038 -0.1459
vn -0.7245 0.5242 0.4476
vn -0.5959 0.6649 0.4504
vn -0.6634 0.7360 0.1351
vn -0.4306 0.4343 0.7912
vn -0.3421 0.5704 0.7467
vn -0.0864 0.5192 0.8503
vn -0.0748 0.8605 0.5039
vn -0.3061 0.8388 0.4504
vn -0.3369 0.9318 0.1351
vn -0.1062 -0.8921 0.4392
vn -0.5129 -0.7217 0.4649
vn -0.5767 -0.8038 0.1459
vn -0.1475 -0.5294 0.8354
vn -0.5305 -0.3182 0.7857
vn -0.4954 0.1872 0.8483
vn -0.8115 0.3574 0.4623
vn -0.8782 -0.1127 0.4649
vn -0.9807 -0.1304 0.1459
usemtl Material
s 1
f 63/1/1 13/2/2 39/3/3 85/4/4
f 87/5/5 73/6/6 50/7/7 61/8/8
f 38/9/9 27/10/10 74/11/11 86/12/12
f 2/13/13 51/14/14 75/15/15 26/16/16
f 15/17/17 3/18/18 25/19/19 37/20/20
f 1/21/21 4/22/22 6/23/23 5/24/24
f 4/22/22 8/25/25 9/26/26 6/23/23
f 2/13/13 7/27/27 9/28/26 8/29/25
f 7/27/27 11/30/28 12/31/29 9/28/26
f 3/18/18 10/32/30 12/33/29 11/34/28
f 10/32/30 5/35/24 6/36/23 12/33/29
f 6/23/23 9/26/26 12/37/29
f 13/2/2 16/38/31 18/39/32 17/40/33
f 16/38/31 20/41/34 21/42/35 18/39/32
f 14/43/36 19/44/37 21/45/35 20/46/34
f 19/44/37 23/47/38 24/48/39 21/45/35
f 15/17/17 22/49/40 24/50/39 23/51/38
f 22/49/40 17/52/33 18/53/32 24/50/39
f 18/39/32 21/42/35 24/54/39
f 25/19/19 28/55/41 30/56/42 29/57/43
f 28/55/41 32/58/44 33/59/45 30/56/42
f 26/16/16 31/60/46 33/61/45 32/62/44
f 31/63/46 35/64/47 36/65/48 33/66/45
f 27/10/10 34/67/49 36/68/48 35/69/47
f 34/67/49 29/70/43 30/71/42 36/68/48
f 30/72/42 33/73/45 36/74/48
f 37/20/20 40/75/50 42/76/51 41/77/52
f 40/75/50 44/78/53 45/79/54 42/76/51
f 38/9/9 43/80/55 45/81/54 44/82/53
f 43/83/55 47/84/56 48/85/57 45/86/54
f 39/3/3 46/87/58 48/88/57 47/89/56
f 46/87/58 41/90/52 42/91/51 48/88/57
f 42/92/51 45/93/54 48/94/57
f 49/95/59 52/96/60 54/97/61 53/98/62
f 52/96/60 56/99/63 57/100/64 54/97/61
f 50/7/7 55/101/65 57/102/64 56/103/63
f 55/101/65 59/104/66 60/105/67 57/102/64
f 51/14/14 58/106/68 60/107/67 59/108/66
f 58/109/68 53/110/62 54/111/61 60/112/67
f 54/97/61 57/100/64 60/113/67
f 61/8/8 64/114/69 66/115/70 65/116/71
f 64/114/69 68/117/72 69/118/73 66/115/70
f 62/119/74 67/120/75 69/121/73 68/122/72
f 67/123/75 71/124/76 72/125/77 69/126/73
f 63/1/1 70/127/78 72/128/77 71/129/76
f 70/127/78 65/130/71 66/131/70 72/128/77
f 66/132/70 69/133/73 72/125/77
f 73/6/6 76/134/79 78/135/80 77/136/81
f 76/134/79 80/137/82 81/138/83 78/135/80
f 74/11/11 79/139/84 81/140/83 80/141/82
f 79/139/84 83/142/85 84/143/86 81/140/83
f 75/15/15 82/144/87 84/145/86 83/146/85
f 82/147/87 77/148/81 78/149/80 84/150/86
f 78/151/80 81/152/83 84/143/86
f 85/4/4 88/153/88 90/154/89 89/155/90
f 88/153/88 92/156/91 93/157/92 90/154/89
f 86/12/12 91/158/93 93/159/92 92/160/91
f 91/161/93 95/162/94 96/163/95 93/164/92
f 87/5/5 94/165/96 96/166/95 95/167/94
f 94/168/96 89/169/90 90/170/89 96/171/95
f 90/154/89 93/157/92 96/172/95
f 63/1/1 85/4/4 89/155/90 70/127/78
f 70/127/78 89/155/90 94/173/96 65/130/71
f 65/116/71 94/165/96 87/5/5 61/8/8
f 13/2/2 63/1/1 71/129/76 16/38/31
f 16/38/31 71/129/76 67/123/75 20/41/34
f 20/46/34 67/120/75 62/119/74 14/43/36
f 3/18/18 15/17/17 23/51/38 10/32/30
f 10/32/30 23/51/38 19/44/37 5/24/24
f 5/24/24 19/44/37 14/43/36 1/21/21
f 86/12/12 74/11/11 80/141/82 91/158/93
f 91/174/93 80/137/82 76/134/79 95/167/94
f 95/167/94 76/134/79 73/6/6 87/5/5
f 27/10/10 38/9/9 44/82/53 34/67/49
f 34/67/49 44/82/53 40/75/50 29/57/43
f 29/57/43 40/75/50 37/20/20 25/19/19
f 49/95/59 62/119/74 68/122/72 52/96/60
f 52/96/60 68/122/72 64/114/69 56/103/63
f 56/103/63 64/114/69 61/8/8 50/7/7
f 26/16/16 75/15/15 83/146/85 31/60/46
f 31/175/46 83/142/85 79/139/84 35/69/47
f 35/69/47 79/139/84 74/11/11 27/10/10
f 2/13/13 26/16/16 32/62/44 7/27/27
f 7/27/27 32/62/44 28/55/41 11/34/28
f 11/34/28 28/55/41 25/19/19 3/18/18
f 85/4/4 39/3/3 47/89/56 88/153/88
f 88/153/88 47/89/56 43/176/55 92/156/91
f 92/160/91 43/80/55 38/9/9 86/12/12
f 75/15/15 51/14/14 59/108/66 82/144/87
f 82/177/87 59/104/66 55/101/65 77/136/81
f 77/136/81 55/101/65 50/7/7 73/6/6
f 51/14/14 2/13/13 8/29/25 58/106/68
f 58/178/68 8/25/25 4/22/22 53/98/62
f 53/98/62 4/22/22 1/21/21 49/95/59
f 39/3/3 13/2/2 17/40/33 46/87/58
f 46/87/58 17/40/33 22/49/40 41/77/52
f 41/77/52 22/49/40 15/17/17 37/20/20
f 62/119/74 49/95/59 1/21/21 14/43/36
