# Blender v3.1.2 OBJ File: 'Reiz.blend'
# www.blender.org
mtllib Kilit.mtl
o Kilit_Cube.013
v -0.185407 -0.285137 0.070980
v -0.187510 0.302967 0.070980
v -0.220465 -0.335845 -0.070980
v -0.220465 0.335845 -0.070980
v 0.185407 -0.285137 0.070980
v 0.187510 0.302967 0.070980
v 0.220465 -0.335845 -0.070980
v 0.220465 0.335845 -0.070980
v -0.187510 0.068739 0.070980
v -0.220465 0.035861 -0.070980
v 0.220465 0.035861 -0.070980
v 0.187510 0.068739 0.070980
v -0.185210 -0.015123 0.070980
v -0.220465 0.335845 0.070980
v 0.220465 0.335845 0.070980
v 0.185210 -0.015123 0.070980
v -0.108547 -0.285137 0.070980
v 0.108547 -0.285137 0.070980
v 0.038430 -0.014847 0.070980
v -0.038430 -0.014847 0.070980
v 0.185407 -0.200700 0.070980
v -0.185407 -0.200700 0.070980
v 0.038430 -0.099284 0.070980
v -0.038430 -0.099284 0.070980
v 0.185210 -0.099008 0.070980
v 0.220465 -0.335845 0.070980
v 0.038234 -0.284861 0.070980
v -0.220465 -0.335845 0.070980
v -0.038234 -0.284861 0.070980
v 0.108743 -0.015123 0.070980
v -0.108743 -0.015123 0.070980
v -0.185210 -0.099008 0.070980
v 0.108743 -0.099008 0.070980
v 0.108547 -0.200700 0.070980
v -0.108743 -0.099008 0.070980
v -0.108547 -0.200700 0.070980
v -0.220465 -0.149992 0.070980
v -0.220465 0.035861 0.070980
v -0.073488 0.035861 0.070980
v -0.073488 -0.335845 0.070980
v 0.073488 -0.335845 0.070980
v 0.220465 0.035861 0.070980
v 0.073488 0.035861 0.070980
v 0.220465 -0.149992 0.070980
v 0.073488 -0.149992 0.070980
v 0.038234 -0.200976 0.070980
v -0.073488 -0.149992 0.070980
v -0.038234 -0.200976 0.070980
vt 0.608450 0.024507
vt 0.609779 0.024507
vt 0.609779 0.027165
vt 0.608450 0.027165
vt 0.609779 0.029823
vt 0.608450 0.029823
vt 0.609779 0.032481
vt 0.608450 0.032481
vt 0.216098 0.823139
vt 0.216982 0.823139
vt 0.216982 0.825400
vt 0.216098 0.825400
vt 0.604463 0.029823
vt 0.607121 0.029823
vt 0.607121 0.032481
vt 0.606235 0.032481
vt 0.605349 0.032481
vt 0.604463 0.032481
vt 0.612437 0.029823
vt 0.612437 0.032481
vt 0.584566 0.475725
vt 0.585052 0.475725
vt 0.585052 0.476414
vt 0.584566 0.476414
vt 0.607786 0.032481
vt 0.607121 0.027165
vt 0.607121 0.024507
vt 0.607786 0.024507
vt 0.608673 0.034940
vt 0.609557 0.034940
vt 0.609779 0.035139
vt 0.608450 0.035139
vt 0.609557 0.032680
vt 0.608673 0.032680
vt 0.608450 0.034253
vt 0.608450 0.033367
vt 0.584566 0.473953
vt 0.585052 0.473953
vt 0.585052 0.474642
vt 0.584566 0.474642
vt 0.583337 0.468818
vt 0.583827 0.468818
vt 0.583827 0.469511
vt 0.583337 0.469511
vt 0.583901 0.474839
vt 0.584388 0.474839
vt 0.584388 0.475528
vt 0.583901 0.475528
vt 0.582673 0.467932
vt 0.583163 0.467932
vt 0.583163 0.468625
vt 0.582673 0.468625
vt 0.582673 0.469704
vt 0.583163 0.469704
vt 0.583163 0.470397
vt 0.582673 0.470397
vt 0.607699 0.032577
vt 0.607209 0.032577
vt 0.607209 0.033270
vt 0.607121 0.033367
vt 0.607209 0.034349
vt 0.607209 0.035042
vt 0.607121 0.035139
vt 0.607121 0.034253
vt 0.608363 0.034156
vt 0.608363 0.033463
vt 0.607699 0.033270
vt 0.607786 0.033367
vt 0.607699 0.034349
vt 0.607786 0.034253
vt 0.607699 0.035042
vt 0.607786 0.035139
vt 0.607873 0.033463
vt 0.607873 0.034156
vt 0.607875 0.035041
vt 0.608362 0.035041
vt 0.608361 0.034351
vt 0.607210 0.033465
vt 0.607210 0.034155
vt 0.608361 0.033269
vt 0.608362 0.032579
vt 0.607697 0.033465
vt 0.607697 0.034155
vt 0.607875 0.032579
vt 0.607875 0.033269
vt 0.607875 0.034351
vn -1.0000 0.0000 0.0000
vn 0.0000 0.0000 -1.0000
vn 1.0000 0.0000 0.0000
vn 0.0000 0.0000 1.0000
vn 0.0000 -1.0000 -0.0000
vn 0.0000 1.0000 0.0000
usemtl Material.007
s off
f 38/1/1 14/2/1 4/3/1 10/4/1
f 10/4/2 4/3/2 8/5/2 11/6/2
f 11/6/3 8/5/3 15/7/3 42/8/3
f 12/9/4 6/10/4 2/11/4 9/12/4
f 3/13/5 7/14/5 26/15/5 41/16/5 40/17/5 28/18/5
f 8/5/6 4/19/6 14/20/6 15/7/6
f 35/21/4 31/22/4 13/23/4 32/24/4
f 7/14/3 11/6/3 42/8/3 44/25/3 26/15/3
f 3/26/2 10/4/2 11/6/2 7/14/2
f 28/27/1 37/28/1 38/1/1 10/4/1 3/26/1
f 9/29/4 2/30/4 14/31/4 38/32/4
f 2/30/4 6/33/4 15/7/4 14/31/4
f 6/33/4 12/34/4 42/8/4 15/7/4
f 12/34/4 9/29/4 38/32/4 39/35/4 43/36/4 42/8/4
f 25/37/4 16/38/4 30/39/4 33/40/4
f 23/41/4 19/42/4 20/43/4 24/44/4
f 27/45/4 46/46/4 48/47/4 29/48/4
f 5/49/4 21/50/4 34/51/4 18/52/4
f 17/53/4 36/54/4 22/55/4 1/56/4
f 21/57/4 5/58/4 26/15/4 44/25/4
f 5/58/4 18/59/4 41/60/4 26/15/4
f 17/61/4 1/62/4 28/63/4 40/64/4
f 20/65/4 19/66/4 43/36/4 39/35/4
f 18/59/4 34/67/4 45/68/4 41/60/4
f 36/69/4 17/61/4 40/64/4 47/70/4
f 1/62/4 22/71/4 37/72/4 28/63/4
f 19/66/4 23/73/4 45/68/4 43/36/4
f 24/74/4 20/65/4 39/35/4 47/70/4
f 23/73/4 24/74/4 47/70/4 45/68/4
f 34/67/4 21/57/4 44/25/4 45/68/4
f 22/71/4 36/69/4 47/70/4 37/72/4
f 32/75/4 13/76/4 38/32/4 37/72/4
f 13/76/4 31/77/4 39/35/4 38/32/4
f 27/78/4 29/79/4 40/64/4 41/60/4
f 30/80/4 16/81/4 42/8/4 43/36/4
f 46/82/4 27/78/4 41/60/4 45/68/4
f 29/79/4 48/83/4 47/70/4 40/64/4
f 16/81/4 25/84/4 44/25/4 42/8/4
f 33/85/4 30/80/4 43/36/4 45/68/4
f 31/77/4 35/86/4 47/70/4 39/35/4
f 48/83/4 46/82/4 45/68/4 47/70/4
f 25/84/4 33/85/4 45/68/4 44/25/4
f 35/86/4 32/75/4 37/72/4 47/70/4
