# Blender v3.1.2 OBJ File: ''
# www.blender.org
mtllib Oturak.mtl
o Cube
v 0.798494 -0.795346 0.492658
v 0.798425 0.809708 0.727270
v -0.806558 -0.795329 0.727232
v 1.000000 -0.731603 0.500531
v 0.731603 -1.000000 0.500531
v 0.979569 -0.834314 0.500531
v 0.921388 -0.921388 0.500531
v 0.834314 -0.979569 0.500531
v -0.731603 -1.000000 0.500531
v -0.947125 -0.736863 0.500531
v -0.806563 -0.795347 0.492659
v -0.830289 -0.979970 0.500531
v -0.905901 -0.922929 0.500531
v -0.946929 -0.837561 0.500531
v 0.741606 0.927410 0.500531
v 1.000000 0.731603 0.500531
v 0.798636 0.809717 0.492753
v 0.840489 0.934758 0.500531
v 0.924318 0.900127 0.500531
v 0.980331 0.828789 0.500531
v -0.947125 -0.736863 0.719350
v -0.731603 -1.000000 0.719350
v -0.946929 -0.837561 0.719350
v -0.905901 -0.922929 0.719350
v -0.830289 -0.979970 0.719350
v -0.435333 0.596774 0.719350
v -0.746603 0.261047 0.719350
v -0.555720 0.364875 0.732951
v -0.538241 0.548965 0.719350
v -0.633532 0.468374 0.719350
v -0.706699 0.367270 0.719350
v 1.000000 0.731603 0.719350
v 0.741606 0.927410 0.719350
v 0.980331 0.828789 0.719350
v 0.924318 0.900127 0.719350
v 0.840489 0.934758 0.719350
v 0.731603 -1.000000 0.719350
v 1.000000 -0.731603 0.719350
v 0.798479 -0.795327 0.727233
v 0.834314 -0.979569 0.719350
v 0.921388 -0.921388 0.719350
v 0.979569 -0.834314 0.719350
v -0.746603 0.261047 0.500531
v -0.435333 0.596774 0.500531
v -0.555767 0.364937 0.486941
v -0.706699 0.367270 0.500531
v -0.633532 0.468374 0.500531
v -0.538241 0.548965 0.500531
vt 0.586842 0.461842
vt 0.592953 0.282047
vt 0.625000 0.288140
vt 0.625000 0.461860
vt 0.586842 0.788158
vt 0.586842 0.961842
vt 0.586842 0.288158
vt 0.398723 0.273723
vt 0.418160 0.250000
vt 0.581840 0.250000
vt 0.413158 0.461842
vt 0.601277 0.476277
vt 0.591450 0.500000
vt 0.408550 0.500000
vt 0.158550 0.500000
vt 0.341450 0.500000
vt 0.341450 0.750000
vt 0.158550 0.750000
vt 0.413158 0.788158
vt 0.591450 0.750000
vt 0.408550 0.750000
vt 0.418160 0.000000
vt 0.581840 0.000000
vt 0.398723 0.976277
vt 0.375000 0.966450
vt 0.375000 0.783550
vt 0.663140 0.500000
vt 0.836860 0.500000
vt 0.836860 0.750000
vt 0.663140 0.750000
vt 0.398723 0.773723
vt 0.601277 0.773723
vt 0.625000 0.788140
vt 0.625000 0.961860
vt 0.413158 0.961842
vt 0.592953 0.967954
vt 0.581840 1.000000
vt 0.418160 1.000000
vt 0.413158 0.288158
vt 0.395711 0.497446
vt 0.398723 0.476277
vt 0.384826 0.490174
vt 0.375000 0.479289
vt 0.375000 0.466450
vt 0.375000 0.283550
vt 0.377504 0.271214
vt 0.385698 0.260698
vt 0.388469 0.263469
vt 0.394751 0.269751
vt 0.615926 0.467701
vt 0.616845 0.480061
vt 0.614028 0.489028
vt 0.603599 0.500000
vt 0.407892 0.993391
vt 0.395305 0.993366
vt 0.385698 0.989302
vt 0.375000 0.978786
vt 0.636757 0.965577
vt 0.629131 0.978800
vt 0.615211 0.990211
vt 0.599851 1.000000
vt 0.603599 0.752459
vt 0.614028 0.760972
vt 0.610953 0.764047
vt 0.604313 0.770687
vt 0.377554 0.770711
vt 0.384826 0.759827
vt 0.386632 0.761632
vt 0.391775 0.766775
vt 0.599147 0.252653
vt 0.615211 0.259789
vt 0.614150 0.260850
vt 0.609652 0.265348
vt 0.146214 0.750000
vt 0.146214 0.500000
vt 0.125000 0.750000
vt 0.125000 0.500000
vt 0.375000 0.250000
vt 0.375000 0.000000
vt 0.402291 0.000000
vt 0.402291 0.250000
vt 0.649330 0.750000
vt 0.649330 0.500000
vt 0.625000 0.750000
vt 0.625000 0.500000
vt 0.603599 0.750000
vt 0.852776 0.500000
vt 0.852776 0.750000
vt 0.875000 0.500000
vt 0.875000 0.750000
vt 0.625000 0.000000
vt 0.625000 0.250000
vt 0.599851 0.250000
vt 0.599851 0.000000
vt 0.354289 0.500000
vt 0.354289 0.750000
vt 0.375000 0.500000
vt 0.375000 0.750000
vt 0.395711 0.500000
vt 0.395711 0.750000
vn -0.1907 -0.2461 -0.9503
vn 0.3673 -0.3332 -0.8684
vn -0.2572 0.7013 -0.6648
vn -0.1303 0.7374 -0.6627
vn -0.1905 -0.2460 0.9504
vn 0.3674 -0.3332 0.8683
vn 0.2600 0.2202 -0.9402
vn -0.7444 0.0737 -0.6636
vn -0.7198 0.2034 -0.6637
vn -0.2838 0.2841 -0.9158
vn 0.7373 0.0731 -0.6716
vn 0.7371 -0.0720 -0.6719
vn -0.0734 -0.7373 -0.6716
vn 0.0720 -0.7370 -0.6721
vn 0.0720 -0.7370 0.6720
vn -0.0734 -0.7373 0.6716
vn -0.2839 0.2842 0.9158
vn 0.7375 0.0731 0.6714
vn 0.7372 -0.0720 0.6718
vn -0.7445 0.0737 0.6636
vn -0.7198 0.2034 0.6637
vn 0.2601 0.2202 0.9402
vn -0.2573 0.7014 0.6647
vn -0.1303 0.7377 0.6625
vn 0.7012 -0.2899 -0.6514
vn 0.5368 -0.5369 -0.6508
vn 0.2898 -0.7011 -0.6515
vn -0.3126 -0.6963 -0.6461
vn -0.5930 -0.4868 -0.6413
vn -0.7467 -0.1712 -0.6428
vn 0.1224 0.7594 -0.6390
vn 0.4665 0.6135 -0.6372
vn 0.6950 0.3197 -0.6440
vn -0.7467 -0.1712 0.6427
vn -0.5930 -0.4869 0.6413
vn -0.3126 -0.6963 0.6461
vn -0.4078 0.6438 0.6475
vn -0.5604 0.5207 0.6440
vn -0.6750 0.3599 0.6441
vn 0.6952 0.3198 0.6438
vn 0.4667 0.6136 0.6369
vn 0.1224 0.7597 0.6386
vn 0.2898 -0.7011 0.6515
vn 0.5369 -0.5369 0.6508
vn 0.7012 -0.2899 0.6513
vn -0.6750 0.3599 -0.6441
vn -0.5604 0.5207 -0.6440
vn -0.4078 0.6438 -0.6475
g Cube_Cube_Material
usemtl Material
s 1
f 17/1/1 45/2/2 44/3/3 15/4/4
f 2/5/5 28/6/6 45/7/2 17/1/1
f 45/7/2 11/8/7 10/9/8 43/10/9
f 1/11/10 17/12/1 16/13/11 4/14/12
f 9/15/13 5/16/14 37/17/15 22/18/16
f 39/19/17 2/5/5 17/1/1 1/11/10
f 4/14/12 16/13/11 32/20/18 38/21/19
f 21/22/20 27/23/21 43/10/9 10/9/8
f 39/19/17 3/24/22 22/25/16 37/26/15
f 15/27/4 44/28/3 26/29/23 33/30/24
f 2/5/5 39/31/17 38/21/19 32/20/18
f 28/6/6 2/32/5 33/33/24 26/34/23
f 3/35/22 28/36/6 27/37/21 21/38/20
f 28/6/6 3/35/22 11/39/7 45/7/2
f 3/35/22 39/19/17 1/11/10 11/39/7
f 4/14/12 6/40/25 1/41/10
f 6/40/25 7/42/26 1/41/10
f 7/42/26 8/43/27 1/41/10
f 8/43/27 5/44/14 1/41/10
f 9/45/13 12/46/28 11/8/7
f 12/46/28 13/47/29 11/8/7
f 13/47/29 14/48/30 11/8/7
f 14/48/30 10/49/8 11/8/7
f 15/50/4 18/51/31 17/12/1
f 18/51/31 19/52/32 17/12/1
f 19/52/32 20/53/33 17/12/1
f 20/53/33 16/13/11 17/12/1
f 21/54/20 23/55/34 3/24/22
f 23/55/34 24/56/35 3/24/22
f 24/56/35 25/57/36 3/24/22
f 25/57/36 22/25/16 3/24/22
f 26/58/23 29/59/37 28/36/6
f 29/59/37 30/60/38 28/36/6
f 30/60/38 31/61/39 28/36/6
f 31/61/39 27/37/21 28/36/6
f 32/20/18 34/62/40 2/32/5
f 34/62/40 35/63/41 2/32/5
f 35/63/41 36/64/42 2/32/5
f 36/64/42 33/65/24 2/32/5
f 37/26/15 40/66/43 39/31/17
f 40/66/43 41/67/44 39/31/17
f 41/67/44 42/68/45 39/31/17
f 42/68/45 38/69/19 39/31/17
f 43/10/9 46/70/46 45/2/2
f 46/70/46 47/71/47 45/2/2
f 47/71/47 48/72/48 45/2/2
f 48/72/48 44/73/3 45/2/2
f 9/15/13 22/18/16 25/74/36 12/75/28
f 12/75/28 25/74/36 24/76/35 13/77/29
f 13/78/29 24/79/35 23/80/34 14/81/30
f 14/81/30 23/80/34 21/22/20 10/9/8
f 15/27/4 33/30/24 36/82/42 18/83/31
f 18/83/31 36/82/42 35/84/41 19/85/32
f 19/85/32 35/84/41 34/86/40 20/53/33
f 20/53/33 34/86/40 32/20/18 16/13/11
f 26/29/23 44/28/3 48/87/48 29/88/37
f 29/88/37 48/87/48 47/89/47 30/90/38
f 30/91/38 47/92/47 46/93/46 31/94/39
f 31/94/39 46/93/46 43/10/9 27/23/21
f 37/17/15 5/16/14 8/95/27 40/96/43
f 40/96/43 8/95/27 7/97/26 41/98/44
f 41/98/44 7/97/26 6/99/25 42/100/45
f 42/100/45 6/99/25 4/14/12 38/21/19
f 11/39/7 1/41/10 5/44/14 9/45/13
o Plane
v 0.882652 -0.097648 2.347868
v 0.882652 -0.097648 0.694476
v 0.329667 0.080127 2.347868
v 0.638406 0.389459 2.347868
v 0.882610 -0.097617 2.347868
v 0.447816 0.103855 2.347868
v 0.547978 0.170974 2.347868
v 0.614905 0.271265 2.347868
v 0.638406 0.389459 0.694476
v 0.329667 0.080127 0.694476
v 0.882610 -0.097617 0.694476
v 0.614904 0.271265 0.694476
v 0.547978 0.170974 0.694476
v 0.447816 0.103855 0.694476
v -0.916651 -0.097648 2.347868
v -0.982614 -0.031684 2.347868
v -0.963294 -0.078327 2.347868
v -0.982614 -0.031684 0.694476
v -0.916651 -0.097648 0.694476
v -0.963294 -0.078327 0.694476
v -0.982614 0.009790 2.347868
v -0.916650 0.075880 2.347868
v -0.963294 0.056470 2.347868
v -0.916650 0.075880 0.694476
v -0.982614 0.009790 0.694476
v -0.963293 0.056470 0.694476
v 1.083484 1.613875 2.347868
v 1.172251 1.525108 2.347868
v 1.127867 1.601983 2.347868
v 1.160358 1.569492 2.347868
v 1.172251 1.525108 0.694476
v 1.083484 1.613875 0.694476
v 1.160358 1.569492 0.694476
v 1.127867 1.601983 0.694476
v 0.928005 1.525108 2.347868
v 1.016772 1.613875 2.347868
v 0.939897 1.569492 2.347868
v 0.972388 1.601982 2.347868
v 1.016772 1.613875 0.694476
v 0.928005 1.525108 0.694476
v 0.972388 1.601982 0.694476
v 0.939897 1.569492 0.694476
vt 0.000000 0.000000
vt 0.000000 0.000000
vt 0.002030 0.000000
vt 0.023530 0.000000
vt 0.047240 0.000000
vt 0.835695 0.000000
vt 1.000000 0.000000
vt 1.000000 0.000000
vt 0.043144 0.000000
vt 0.021660 0.000000
vt 0.002005 0.000000
vt 1.000000 0.000000
vt 1.000000 0.000000
vt 1.000000 0.000000
vt 1.000000 0.000000
vt 1.000000 0.000000
vt 1.000000 0.000000
vt 1.000000 0.000000
vt 1.000000 1.000000
vt 1.000000 1.000000
vt 1.000000 1.000000
vt 1.000000 1.000000
vt 1.000000 1.000000
vt 1.000000 1.000000
vt 1.000000 1.000000
vt 1.000000 1.000000
vt 1.000000 1.000000
vt 0.043144 1.000000
vt 0.047240 1.000000
vt 0.835695 1.000000
vt 1.000000 0.000000
vt 1.000000 0.000000
vt 1.000000 0.000000
vt 1.000000 0.000000
vt 0.898596 1.000000
vt 0.951969 1.000000
vt 0.987688 1.000000
vt 1.000315 1.000000
vt 1.000000 1.000000
vt 1.000000 1.000000
vt 0.898596 0.000000
vt 0.023530 1.000000
vt 0.002030 1.000000
vt 0.000000 1.000000
vt 0.000000 1.000000
vt 0.002005 1.000000
vt 0.021660 1.000000
vn 0.0958 0.7280 0.6789
vn -0.0958 0.7280 0.6789
vn -0.3786 0.6557 0.6532
vn -0.6557 0.3786 0.6532
vn -0.6854 0.1792 0.7057
vn -0.6954 0.1577 0.7011
vn 0.0000 -0.0000 1.0000
vn 0.5197 -0.6206 0.5872
vn 0.7495 0.0319 0.6613
vn 0.6557 0.3786 0.6532
vn 0.3786 0.6557 0.6532
vn -0.0688 0.6803 0.7297
vn -0.1474 0.7313 0.6659
vn -0.5494 0.5484 0.6304
vn -0.7319 0.1455 0.6657
vn -0.7319 -0.1456 0.6657
vn -0.5490 -0.5490 0.6303
vn -0.1456 -0.7319 0.6657
vn -0.7319 -0.1456 -0.6657
vn -0.7319 0.1455 -0.6657
vn -0.5494 0.5484 -0.6304
vn -0.1474 0.7313 -0.6659
vn -0.0688 0.6803 -0.7297
vn 0.0000 -0.0000 -1.0000
vn 0.5197 -0.6206 -0.5872
vn -0.1456 -0.7319 -0.6657
vn -0.5490 -0.5490 -0.6303
vn 0.7495 0.0319 -0.6613
vn -0.6854 0.1792 -0.7057
vn -0.6954 0.1577 -0.7011
vn -0.2525 0.6068 0.7537
vn -0.4652 0.4643 0.7537
vn -0.6073 0.2513 0.7537
vn -0.6073 0.2513 -0.7537
vn -0.4652 0.4643 -0.7537
vn -0.2525 0.6068 -0.7537
vn -0.6557 0.3786 -0.6532
vn -0.3786 0.6557 -0.6532
vn -0.0958 0.7280 -0.6789
vn 0.0958 0.7280 -0.6789
vn 0.3786 0.6557 -0.6532
vn 0.6557 0.3786 -0.6532
g Plane_Plane_oturak
usemtl oturak
s 1
f 75/101/49 84/102/50 86/103/51 85/104/52 83/105/53 52/106/54 53/107/55 49/108/56 76/109/57 78/110/58 77/111/59
f 49/108/56 53/107/55 51/112/60 70/113/61 71/114/62 69/115/63 64/116/64 65/117/65 63/118/66
f 66/119/67 73/120/68 74/121/69 72/122/70 58/123/71 59/124/72 50/125/73 67/126/74 68/127/75
f 76/109/57 49/108/56 50/125/73 79/128/76
f 83/105/53 88/129/77 57/130/78 52/106/54
f 58/123/71 72/122/70 70/113/61 51/112/60
f 50/125/73 49/108/56 63/118/66 67/126/74
f 51/112/60 53/107/55 54/131/79
f 54/131/79 53/107/55 55/132/80
f 55/132/80 53/107/55 56/133/81
f 56/133/81 53/107/55 52/134/54
f 57/130/78 59/124/72 60/135/82
f 60/135/82 59/124/72 61/136/83
f 61/136/83 59/124/72 62/137/84
f 62/137/84 59/124/72 58/138/71
f 51/112/60 54/131/79 62/139/84 58/123/71
f 54/131/79 55/132/80 61/140/83 62/139/84
f 55/132/80 56/141/81 60/135/82 61/140/83
f 56/141/81 52/106/54 57/130/78 60/135/82
f 50/125/73 59/124/72 57/130/78 88/129/77 90/142/85 89/143/86 87/144/87 80/145/88 82/146/89 81/147/90 79/128/76
f 63/118/66 65/117/65 68/127/75 67/126/74
f 65/117/65 64/116/64 66/119/67 68/127/75
f 69/115/63 71/114/62 74/121/69 73/120/68
f 71/114/62 70/113/61 72/122/70 74/121/69
f 64/116/64 69/115/63 73/120/68 66/119/67
f 79/128/76 81/147/90 78/110/58 76/109/57
f 81/147/90 82/146/89 77/111/59 78/110/58
f 82/146/89 80/145/88 75/101/49 77/111/59
f 87/144/87 89/143/86 86/103/51 84/102/50
f 89/143/86 90/142/85 85/104/52 86/103/51
f 90/142/85 88/129/77 83/105/53 85/104/52
f 80/145/88 87/144/87 84/102/50 75/101/49
o Cube.001
v 0.798494 -0.795346 2.317379
v 0.798425 0.809708 2.551990
v -0.806558 -0.795329 2.551953
v 1.000000 -0.731603 2.325252
v 0.731603 -1.000000 2.325252
v 0.979569 -0.834314 2.325252
v 0.921388 -0.921388 2.325252
v 0.834314 -0.979569 2.325252
v -0.731603 -1.000000 2.325252
v -0.947125 -0.736863 2.325252
v -0.806563 -0.795347 2.317379
v -0.830289 -0.979970 2.325252
v -0.905901 -0.922929 2.325252
v -0.946929 -0.837561 2.325252
v 0.741606 0.927410 2.325252
v 1.000000 0.731603 2.325252
v 0.798636 0.809717 2.317474
v 0.840489 0.934758 2.325252
v 0.924318 0.900127 2.325252
v 0.980331 0.828789 2.325252
v -0.947125 -0.736863 2.544071
v -0.731603 -1.000000 2.544071
v -0.946929 -0.837561 2.544071
v -0.905901 -0.922929 2.544071
v -0.830289 -0.979970 2.544071
v -0.435333 0.596774 2.544071
v -0.746603 0.261047 2.544071
v -0.555720 0.364875 2.557672
v -0.538241 0.548965 2.544071
v -0.633532 0.468374 2.544071
v -0.706699 0.367270 2.544071
v 1.000000 0.731603 2.544071
v 0.741606 0.927410 2.544071
v 0.980331 0.828789 2.544071
v 0.924318 0.900127 2.544071
v 0.840489 0.934758 2.544071
v 0.731603 -1.000000 2.544071
v 1.000000 -0.731603 2.544071
v 0.798479 -0.795327 2.551954
v 0.834314 -0.979569 2.544071
v 0.921388 -0.921388 2.544071
v 0.979569 -0.834314 2.544071
v -0.746603 0.261047 2.325252
v -0.435333 0.596774 2.325252
v -0.555767 0.364937 2.311662
v -0.706699 0.367270 2.325252
v -0.633532 0.468374 2.325252
v -0.538241 0.548965 2.325252
vt 0.586842 0.461842
vt 0.592953 0.282047
vt 0.625000 0.288140
vt 0.625000 0.461860
vt 0.586842 0.788158
vt 0.586842 0.961842
vt 0.586842 0.288158
vt 0.398723 0.273723
vt 0.418160 0.250000
vt 0.581840 0.250000
vt 0.413158 0.461842
vt 0.601277 0.476277
vt 0.591450 0.500000
vt 0.408550 0.500000
vt 0.158550 0.500000
vt 0.341450 0.500000
vt 0.341450 0.750000
vt 0.158550 0.750000
vt 0.413158 0.788158
vt 0.591450 0.750000
vt 0.408550 0.750000
vt 0.418160 0.000000
vt 0.581840 0.000000
vt 0.398723 0.976277
vt 0.375000 0.966450
vt 0.375000 0.783550
vt 0.663140 0.500000
vt 0.836860 0.500000
vt 0.836860 0.750000
vt 0.663140 0.750000
vt 0.398723 0.773723
vt 0.601277 0.773723
vt 0.625000 0.788140
vt 0.625000 0.961860
vt 0.413158 0.961842
vt 0.592953 0.967954
vt 0.581840 1.000000
vt 0.418160 1.000000
vt 0.413158 0.288158
vt 0.395711 0.497446
vt 0.398723 0.476277
vt 0.384826 0.490174
vt 0.375000 0.479289
vt 0.375000 0.466450
vt 0.375000 0.283550
vt 0.377504 0.271214
vt 0.385698 0.260698
vt 0.388469 0.263469
vt 0.394751 0.269751
vt 0.615926 0.467701
vt 0.616845 0.480061
vt 0.614028 0.489028
vt 0.603599 0.500000
vt 0.407892 0.993391
vt 0.395305 0.993366
vt 0.385698 0.989302
vt 0.375000 0.978786
vt 0.636757 0.965577
vt 0.629131 0.978800
vt 0.615211 0.990211
vt 0.599851 1.000000
vt 0.603599 0.752459
vt 0.614028 0.760972
vt 0.610953 0.764047
vt 0.604313 0.770687
vt 0.377554 0.770711
vt 0.384826 0.759827
vt 0.386632 0.761632
vt 0.391775 0.766775
vt 0.599147 0.252653
vt 0.615211 0.259789
vt 0.614150 0.260850
vt 0.609652 0.265348
vt 0.146214 0.750000
vt 0.146214 0.500000
vt 0.125000 0.750000
vt 0.125000 0.500000
vt 0.375000 0.250000
vt 0.375000 0.000000
vt 0.402291 0.000000
vt 0.402291 0.250000
vt 0.649330 0.750000
vt 0.649330 0.500000
vt 0.625000 0.750000
vt 0.625000 0.500000
vt 0.603599 0.750000
vt 0.852776 0.500000
vt 0.852776 0.750000
vt 0.875000 0.500000
vt 0.875000 0.750000
vt 0.625000 0.000000
vt 0.625000 0.250000
vt 0.599851 0.250000
vt 0.599851 0.000000
vt 0.354289 0.500000
vt 0.354289 0.750000
vt 0.375000 0.500000
vt 0.375000 0.750000
vt 0.395711 0.500000
vt 0.395711 0.750000
vn -0.1907 -0.2461 -0.9503
vn 0.3673 -0.3332 -0.8684
vn -0.2572 0.7013 -0.6648
vn -0.1303 0.7374 -0.6627
vn -0.1905 -0.2460 0.9504
vn 0.3674 -0.3332 0.8683
vn 0.2600 0.2202 -0.9402
vn -0.7444 0.0737 -0.6636
vn -0.7198 0.2034 -0.6637
vn -0.2838 0.2841 -0.9158
vn 0.7373 0.0731 -0.6716
vn 0.7371 -0.0720 -0.6719
vn -0.0734 -0.7373 -0.6716
vn 0.0720 -0.7370 -0.6721
vn 0.0720 -0.7370 0.6720
vn -0.0734 -0.7373 0.6716
vn -0.2839 0.2842 0.9158
vn 0.7375 0.0731 0.6714
vn 0.7372 -0.0720 0.6718
vn -0.7445 0.0737 0.6636
vn -0.7198 0.2034 0.6637
vn 0.2601 0.2202 0.9402
vn -0.2573 0.7014 0.6647
vn -0.1304 0.7377 0.6625
vn 0.7012 -0.2899 -0.6514
vn 0.5368 -0.5369 -0.6508
vn 0.2898 -0.7011 -0.6515
vn -0.3126 -0.6963 -0.6461
vn -0.5930 -0.4868 -0.6413
vn -0.7467 -0.1712 -0.6428
vn 0.1224 0.7594 -0.6390
vn 0.4665 0.6135 -0.6372
vn 0.6950 0.3197 -0.6440
vn -0.7467 -0.1712 0.6427
vn -0.5930 -0.4869 0.6413
vn -0.3126 -0.6963 0.6461
vn -0.4078 0.6438 0.6475
vn -0.5604 0.5207 0.6440
vn -0.6750 0.3599 0.6441
vn 0.6952 0.3198 0.6438
vn 0.4667 0.6136 0.6369
vn 0.1224 0.7597 0.6386
vn 0.2898 -0.7011 0.6515
vn 0.5368 -0.5369 0.6508
vn 0.7012 -0.2899 0.6513
vn -0.6750 0.3599 -0.6441
vn -0.5604 0.5207 -0.6440
vn -0.4078 0.6438 -0.6475
g Cube.001_Cube.001_Material
usemtl Material
s 1
f 107/148/91 135/149/92 134/150/93 105/151/94
f 92/152/95 118/153/96 135/154/92 107/148/91
f 135/154/92 101/155/97 100/156/98 133/157/99
f 91/158/100 107/159/91 106/160/101 94/161/102
f 99/162/103 95/163/104 127/164/105 112/165/106
f 129/166/107 92/152/95 107/148/91 91/158/100
f 94/161/102 106/160/101 122/167/108 128/168/109
f 111/169/110 117/170/111 133/157/99 100/156/98
f 129/166/107 93/171/112 112/172/106 127/173/105
f 105/174/94 134/175/93 116/176/113 123/177/114
f 92/152/95 129/178/107 128/168/109 122/167/108
f 118/153/96 92/179/95 123/180/114 116/181/113
f 93/182/112 118/183/96 117/184/111 111/185/110
f 118/153/96 93/182/112 101/186/97 135/154/92
f 93/182/112 129/166/107 91/158/100 101/186/97
f 94/161/102 96/187/115 91/188/100
f 96/187/115 97/189/116 91/188/100
f 97/189/116 98/190/117 91/188/100
f 98/190/117 95/191/104 91/188/100
f 99/192/103 102/193/118 101/155/97
f 102/193/118 103/194/119 101/155/97
f 103/194/119 104/195/120 101/155/97
f 104/195/120 100/196/98 101/155/97
f 105/197/94 108/198/121 107/159/91
f 108/198/121 109/199/122 107/159/91
f 109/199/122 110/200/123 107/159/91
f 110/200/123 106/160/101 107/159/91
f 111/201/110 113/202/124 93/171/112
f 113/202/124 114/203/125 93/171/112
f 114/203/125 115/204/126 93/171/112
f 115/204/126 112/172/106 93/171/112
f 116/205/113 119/206/127 118/183/96
f 119/206/127 120/207/128 118/183/96
f 120/207/128 121/208/129 118/183/96
f 121/208/129 117/184/111 118/183/96
f 122/167/108 124/209/130 92/179/95
f 124/209/130 125/210/131 92/179/95
f 125/210/131 126/211/132 92/179/95
f 126/211/132 123/212/114 92/179/95
f 127/173/105 130/213/133 129/178/107
f 130/213/133 131/214/134 129/178/107
f 131/214/134 132/215/135 129/178/107
f 132/215/135 128/216/109 129/178/107
f 133/157/99 136/217/136 135/149/92
f 136/217/136 137/218/137 135/149/92
f 137/218/137 138/219/138 135/149/92
f 138/219/138 134/220/93 135/149/92
f 99/162/103 112/165/106 115/221/126 102/222/118
f 102/222/118 115/221/126 114/223/125 103/224/119
f 103/225/119 114/226/125 113/227/124 104/228/120
f 104/228/120 113/227/124 111/169/110 100/156/98
f 105/174/94 123/177/114 126/229/132 108/230/121
f 108/230/121 126/229/132 125/231/131 109/232/122
f 109/232/122 125/231/131 124/233/130 110/200/123
f 110/200/123 124/233/130 122/167/108 106/160/101
f 116/176/113 134/175/93 138/234/138 119/235/127
f 119/235/127 138/234/138 137/236/137 120/237/128
f 120/238/128 137/239/137 136/240/136 121/241/129
f 121/241/129 136/240/136 133/157/99 117/170/111
f 127/164/105 95/163/104 98/242/117 130/243/133
f 130/243/133 98/242/117 97/244/116 131/245/134
f 131/245/134 97/244/116 96/246/115 132/247/135
f 132/247/135 96/246/115 94/161/102 128/168/109
f 101/186/97 91/188/100 95/191/104 99/192/103
