# Blender v3.1.2 OBJ File: 'Reiz.blend'
# www.blender.org
mtllib Wall.mtl
o Wall_Cube.002
v -6.663549 0.003280 0.171136
v -6.663549 4.566103 0.171136
v -6.663549 0.003280 -0.171136
v -6.663549 4.566103 -0.171136
v 6.663549 0.003280 0.171136
v 6.663549 4.566103 0.171136
v 6.663549 0.003280 -0.171136
v 6.663549 4.566103 -0.171136
v -6.663549 0.510261 0.171136
v -6.663549 1.017241 0.171136
v -6.663549 1.524221 0.171136
v -6.663549 2.031201 0.171136
v -6.663549 2.538182 0.171136
v -6.663549 3.045162 0.171136
v -6.663549 3.552142 0.171136
v -6.663549 4.059123 0.171136
v -6.663549 4.059123 -0.171136
v -6.663549 3.552142 -0.171136
v -6.663549 3.045162 -0.171136
v -6.663549 2.538182 -0.171136
v -6.663549 2.031201 -0.171136
v -6.663549 1.524221 -0.171136
v -6.663549 1.017241 -0.171136
v -6.663549 0.510261 -0.171136
v 6.663549 4.059123 -0.171136
v 6.663549 3.552142 -0.171136
v 6.663549 3.045162 -0.171136
v 6.663549 2.538182 -0.171136
v 6.663549 2.031201 -0.171136
v 6.663549 1.524221 -0.171136
v 6.663549 1.017241 -0.171136
v 6.663549 0.510261 -0.171136
v 6.663549 4.059123 0.171136
v 6.663549 3.552142 0.171136
v 6.663549 3.045162 0.171136
v 6.663549 2.538182 0.171136
v 6.663549 2.031201 0.171136
v 6.663549 1.524221 0.171136
v 6.663549 1.017241 0.171136
v 6.663549 0.510261 0.171136
v 5.923934 0.003281 -0.171136
v -5.923934 0.003281 -0.171136
v -5.923934 4.566103 -0.171136
v 5.923934 4.566103 -0.171136
v -5.923934 0.003281 0.171136
v 5.923934 0.003281 0.171136
v 5.923934 4.566103 0.171136
v -5.923934 4.566103 0.171136
v 5.923934 0.510261 0.171136
v -5.923934 0.510261 0.171136
v 5.923934 1.017241 0.171136
v -5.923934 1.017241 0.171136
v 5.923934 1.524221 0.171136
v -5.923934 1.524221 0.171136
v 5.923934 2.031201 0.171136
v -5.923934 2.031201 0.171136
v 5.923934 2.538182 0.171136
v -5.923934 2.538182 0.171136
v 5.923934 3.045162 0.171136
v -5.923934 3.045162 0.171136
v 5.923934 3.552142 0.171136
v -5.923934 3.552142 0.171136
v 5.923934 4.059122 0.171136
v -5.923934 4.059122 0.171136
v -5.923934 0.510261 -0.171136
v 5.923934 0.510261 -0.171136
v -5.923934 1.017241 -0.171136
v 5.923934 1.017241 -0.171136
v -5.923934 1.524221 -0.171136
v 5.923934 1.524221 -0.171136
v -5.923934 2.031201 -0.171136
v 5.923934 2.031201 -0.171136
v -5.923934 2.538182 -0.171136
v 5.923934 2.538182 -0.171136
v -5.923934 3.045162 -0.171136
v 5.923934 3.045162 -0.171136
v -5.923934 3.552142 -0.171136
v 5.923934 3.552142 -0.171136
v -5.923934 4.059122 -0.171136
v 5.923934 4.059122 -0.171136
vt 0.515635 0.022094
vt 0.515907 0.022094
vt 0.515907 0.024539
vt 0.515635 0.024539
vt 0.515635 0.026169
vt 0.515907 0.026169
vt 0.515907 0.026984
vt 0.515635 0.026984
vt 0.515907 0.029428
vt 0.515635 0.029428
vt 0.515635 0.031058
vt 0.515907 0.031058
vt 0.515907 0.031873
vt 0.515635 0.031873
vt 0.512647 0.026984
vt 0.513462 0.026984
vt 0.513462 0.029428
vt 0.512647 0.029428
vt 0.517536 0.026984
vt 0.518351 0.026984
vt 0.518351 0.029428
vt 0.517536 0.029428
vt 0.513462 0.031058
vt 0.513734 0.031058
vt 0.513734 0.031873
vt 0.513462 0.031873
vt 0.192235 0.031058
vt 0.192506 0.031058
vt 0.192506 0.031873
vt 0.192235 0.031873
vt 0.514005 0.031058
vt 0.514277 0.031058
vt 0.514277 0.031873
vt 0.514005 0.031873
vt 0.192778 0.031058
vt 0.193050 0.031058
vt 0.193050 0.031873
vt 0.192778 0.031873
vt 0.514548 0.031058
vt 0.514820 0.031058
vt 0.514820 0.031873
vt 0.514548 0.031873
vt 0.193321 0.031058
vt 0.193593 0.031058
vt 0.193593 0.031873
vt 0.193321 0.031873
vt 0.515092 0.031058
vt 0.515363 0.031058
vt 0.515363 0.031873
vt 0.515092 0.031873
vt 0.193864 0.031058
vt 0.194136 0.031058
vt 0.194136 0.031873
vt 0.193864 0.031873
vt 0.513734 0.026984
vt 0.513734 0.029428
vt 0.192235 0.026984
vt 0.192506 0.026984
vt 0.192506 0.029428
vt 0.192235 0.029428
vt 0.514005 0.026984
vt 0.514277 0.026984
vt 0.514277 0.029428
vt 0.514005 0.029428
vt 0.192778 0.026984
vt 0.193050 0.026984
vt 0.193050 0.029428
vt 0.192778 0.029428
vt 0.514548 0.026984
vt 0.514820 0.026984
vt 0.514820 0.029428
vt 0.514548 0.029428
vt 0.193321 0.026984
vt 0.193593 0.026984
vt 0.193593 0.029428
vt 0.193321 0.029428
vt 0.515092 0.026984
vt 0.515363 0.026984
vt 0.515363 0.029428
vt 0.515092 0.029428
vt 0.193864 0.026984
vt 0.194136 0.026984
vt 0.194136 0.029428
vt 0.193864 0.029428
vt 0.513462 0.026169
vt 0.513734 0.026169
vt 0.514005 0.026169
vt 0.514277 0.026169
vt 0.514548 0.026169
vt 0.514820 0.026169
vt 0.515092 0.026169
vt 0.515363 0.026169
vt 0.513462 0.022094
vt 0.513734 0.022094
vt 0.513734 0.024539
vt 0.513462 0.024539
vt 0.192235 0.022094
vt 0.192506 0.022094
vt 0.192506 0.024539
vt 0.192235 0.024539
vt 0.514005 0.022094
vt 0.514277 0.022094
vt 0.514277 0.024539
vt 0.514005 0.024539
vt 0.192778 0.022094
vt 0.193050 0.022094
vt 0.193050 0.024539
vt 0.192778 0.024539
vt 0.514548 0.022094
vt 0.514820 0.022094
vt 0.514820 0.024539
vt 0.514548 0.024539
vt 0.193321 0.022094
vt 0.193593 0.022094
vt 0.193593 0.024539
vt 0.193321 0.024539
vt 0.515092 0.022094
vt 0.515363 0.022094
vt 0.515363 0.024539
vt 0.515092 0.024539
vt 0.193864 0.022094
vt 0.194136 0.022094
vt 0.194136 0.024539
vt 0.193864 0.024539
vt 0.515635 0.025354
vt 0.515363 0.025354
vt 0.515092 0.025354
vt 0.514820 0.025354
vt 0.514548 0.025354
vt 0.514277 0.025354
vt 0.514005 0.025354
vt 0.513734 0.025354
vt 0.513462 0.025354
vt 0.194136 0.030243
vt 0.193864 0.030243
vt 0.515363 0.030243
vt 0.515635 0.030243
vt 0.515092 0.030243
vt 0.193593 0.030243
vt 0.193321 0.030243
vt 0.514820 0.030243
vt 0.514548 0.030243
vt 0.193050 0.030243
vt 0.192778 0.030243
vt 0.514277 0.030243
vt 0.514005 0.030243
vt 0.192506 0.030243
vt 0.192235 0.030243
vt 0.513734 0.030243
vt 0.513462 0.030243
vt 0.516721 0.026984
vt 0.516721 0.029428
vt 0.511017 0.026984
vt 0.511832 0.026984
vt 0.511832 0.029428
vt 0.511017 0.029428
vt 0.515907 0.030243
vt 0.515907 0.025354
vn -1.0000 0.0000 0.0000
vn 0.0000 0.0000 -1.0000
vn 1.0000 0.0000 0.0000
vn 0.0000 0.0000 1.0000
vn -0.0000 -1.0000 0.0000
vn 0.0000 1.0000 0.0000
usemtl Material.003
s off
f 16/1/1 2/2/1 4/3/1 17/4/1
f 80/5/2 44/6/2 8/7/2 25/8/2
f 25/8/3 8/7/3 6/9/3 33/10/3
f 64/11/4 48/12/4 2/13/4 16/14/4
f 41/15/5 7/16/5 5/17/5 46/18/5
f 43/19/6 4/20/6 2/21/6 48/22/6
f 45/23/4 50/24/4 9/25/4 1/26/4
f 50/27/4 52/28/4 10/29/4 9/30/4
f 52/31/4 54/32/4 11/33/4 10/34/4
f 54/35/4 56/36/4 12/37/4 11/38/4
f 56/39/4 58/40/4 13/41/4 12/42/4
f 58/43/4 60/44/4 14/45/4 13/46/4
f 60/47/4 62/48/4 15/49/4 14/50/4
f 62/51/4 64/52/4 16/53/4 15/54/4
f 7/16/3 32/55/3 40/56/3 5/17/3
f 32/57/3 31/58/3 39/59/3 40/60/3
f 31/61/3 30/62/3 38/63/3 39/64/3
f 30/65/3 29/66/3 37/67/3 38/68/3
f 29/69/3 28/70/3 36/71/3 37/72/3
f 28/73/3 27/74/3 35/75/3 36/76/3
f 27/77/3 26/78/3 34/79/3 35/80/3
f 26/81/3 25/82/3 33/83/3 34/84/3
f 41/85/2 66/86/2 32/55/2 7/16/2
f 66/86/2 68/87/2 31/61/2 32/55/2
f 68/87/2 70/88/2 30/62/2 31/61/2
f 70/88/2 72/89/2 29/69/2 30/62/2
f 72/89/2 74/90/2 28/70/2 29/69/2
f 74/90/2 76/91/2 27/77/2 28/70/2
f 76/91/2 78/92/2 26/78/2 27/77/2
f 78/92/2 80/5/2 25/8/2 26/78/2
f 1/93/1 9/94/1 24/95/1 3/96/1
f 9/97/1 10/98/1 23/99/1 24/100/1
f 10/101/1 11/102/1 22/103/1 23/104/1
f 11/105/1 12/106/1 21/107/1 22/108/1
f 12/109/1 13/110/1 20/111/1 21/112/1
f 13/113/1 14/114/1 19/115/1 20/116/1
f 14/117/1 15/118/1 18/119/1 19/120/1
f 15/121/1 16/122/1 17/123/1 18/124/1
f 18/119/2 17/4/2 79/125/2 77/126/2
f 77/126/2 79/125/2 80/5/2 78/92/2
f 19/120/2 18/119/2 77/126/2 75/127/2
f 75/127/2 77/126/2 78/92/2 76/91/2
f 20/111/2 19/120/2 75/127/2 73/128/2
f 73/128/2 75/127/2 76/91/2 74/90/2
f 21/112/2 20/111/2 73/128/2 71/129/2
f 71/129/2 73/128/2 74/90/2 72/89/2
f 22/103/2 21/112/2 71/129/2 69/130/2
f 69/130/2 71/129/2 72/89/2 70/88/2
f 23/104/2 22/103/2 69/130/2 67/131/2
f 67/131/2 69/130/2 70/88/2 68/87/2
f 24/95/2 23/104/2 67/131/2 65/132/2
f 65/132/2 67/131/2 68/87/2 66/86/2
f 3/96/2 24/95/2 65/132/2 42/133/2
f 42/133/2 65/132/2 66/86/2 41/85/2
f 34/84/4 33/83/4 63/134/4 61/135/4
f 61/136/4 63/137/4 64/11/4 62/48/4
f 35/80/4 34/79/4 61/136/4 59/138/4
f 59/138/4 61/136/4 62/48/4 60/47/4
f 36/76/4 35/75/4 59/139/4 57/140/4
f 57/141/4 59/138/4 60/47/4 58/40/4
f 37/72/4 36/71/4 57/141/4 55/142/4
f 55/142/4 57/141/4 58/40/4 56/39/4
f 38/68/4 37/67/4 55/143/4 53/144/4
f 53/145/4 55/142/4 56/39/4 54/32/4
f 39/64/4 38/63/4 53/145/4 51/146/4
f 51/146/4 53/145/4 54/32/4 52/31/4
f 40/60/4 39/59/4 51/147/4 49/148/4
f 49/149/4 51/146/4 52/31/4 50/24/4
f 5/17/4 40/56/4 49/149/4 46/150/4
f 46/150/4 49/149/4 50/24/4 45/23/4
f 8/7/6 44/151/6 47/152/6 6/9/6
f 44/151/6 43/19/6 48/22/6 47/152/6
f 3/153/5 42/154/5 45/155/5 1/156/5
f 42/154/5 41/15/5 46/18/5 45/155/5
f 33/10/4 6/9/4 47/157/4 63/137/4
f 63/137/4 47/157/4 48/12/4 64/11/4
f 17/4/2 4/3/2 43/158/2 79/125/2
f 79/125/2 43/158/2 44/6/2 80/5/2
