# Blender v3.1.2 OBJ File: ''
# www.blender.org
mtllib xray_1.mtl
o Cube.001
v 0.502609 1.299165 -0.195088
v 0.490231 1.286787 -0.195088
v 0.490231 1.299165 -0.207466
v -0.502609 1.299165 -0.195088
v -0.490231 1.299165 -0.207466
v -0.490231 1.286787 -0.195088
v 0.502609 1.299165 0.195088
v 0.490231 1.299165 0.207466
v 0.490231 1.286787 0.195088
v -0.502609 1.299165 0.195088
v -0.490231 1.286787 0.195088
v -0.490231 1.299165 0.207466
v 0.502609 1.385319 -0.195088
v 0.490231 1.385319 -0.207466
v 0.490231 1.397697 -0.195088
v -0.502609 1.385319 -0.195088
v -0.490231 1.397697 -0.195088
v -0.490231 1.385319 -0.207466
v 0.490231 1.385319 0.207466
v 0.502609 1.385319 0.195088
v 0.490231 1.397697 0.195088
v -0.502609 1.385319 0.195088
v -0.490231 1.385319 0.207466
v -0.490231 1.397697 0.195088
v 0.292080 0.009825 0.122135
v 0.292080 0.022203 0.134513
v 0.279701 0.022203 0.122135
v 0.292080 1.300415 0.134513
v 0.292080 1.312793 0.122135
v 0.279701 1.300415 0.122135
v 0.292080 0.009825 -0.122135
v 0.279701 0.022203 -0.122135
v 0.292080 0.022203 -0.134513
v 0.292080 1.312793 -0.122135
v 0.292080 1.300415 -0.134513
v 0.279701 1.300415 -0.122135
v 0.398970 0.009825 0.122135
v 0.411348 0.022203 0.122135
v 0.398970 0.022203 0.134513
v 0.398970 1.312793 0.122135
v 0.398970 1.300415 0.134513
v 0.411348 1.300415 0.122135
v 0.398970 0.009825 -0.122135
v 0.398970 0.022203 -0.134513
v 0.411348 0.022203 -0.122135
v 0.398970 1.312793 -0.122135
v 0.411348 1.300415 -0.122135
v 0.398970 1.300415 -0.134513
v -0.395479 0.009825 0.122135
v -0.395479 0.022203 0.134513
v -0.407858 0.022203 0.122135
v -0.395479 1.300415 0.134513
v -0.395479 1.312793 0.122135
v -0.407858 1.300415 0.122135
v -0.395479 0.009825 -0.122135
v -0.407858 0.022203 -0.122135
v -0.395479 0.022203 -0.134513
v -0.395479 1.312793 -0.122135
v -0.395479 1.300415 -0.134513
v -0.407858 1.300415 -0.122135
v -0.288589 0.009825 0.122135
v -0.276211 0.022203 0.122135
v -0.288589 0.022203 0.134513
v -0.288589 1.312793 0.122135
v -0.288589 1.300415 0.134513
v -0.276211 1.300415 0.122135
v -0.288589 0.009825 -0.122135
v -0.288589 0.022203 -0.134513
v -0.276211 0.022203 -0.122135
v -0.288589 1.312793 -0.122135
v -0.276211 1.300415 -0.122135
v -0.288589 1.300415 -0.134513
v -0.316895 1.315425 0.071534
v -0.304517 1.315425 0.083913
v -0.304517 1.327803 0.071534
v 0.304517 1.315424 0.083913
v 0.316895 1.315424 0.071534
v 0.304517 1.327803 0.071534
v -0.316895 1.315425 -0.071534
v -0.304517 1.327803 -0.071534
v -0.304517 1.315425 -0.083913
v 0.316895 1.315425 -0.071534
v 0.304517 1.315425 -0.083913
v 0.304517 1.327803 -0.071534
v -0.316895 1.129584 0.071534
v -0.304517 1.117206 0.071534
v -0.304517 1.129584 0.083913
v 0.316895 1.129584 0.071534
v 0.304517 1.129584 0.083913
v 0.304517 1.117206 0.071534
v -0.316895 1.129585 -0.071534
v -0.304517 1.129585 -0.083913
v -0.304517 1.117206 -0.071534
v 0.316895 1.129584 -0.071534
v 0.304517 1.117206 -0.071534
v 0.304517 1.129584 -0.083913
vt 0.152901 0.507458
vt 0.347099 0.507458
vt 0.347099 0.742542
vt 0.152901 0.742542
vt 0.378078 0.777901
vt 0.621921 0.777901
vt 0.621922 0.972099
vt 0.378078 0.972099
vt 0.378078 0.007458
vt 0.621921 0.007458
vt 0.621921 0.242542
vt 0.378079 0.242542
vt 0.378078 0.277901
vt 0.621921 0.277901
vt 0.621922 0.472099
vt 0.378078 0.472099
vt 0.652901 0.507458
vt 0.847099 0.507458
vt 0.847099 0.742542
vt 0.652901 0.742542
vt 0.148507 0.511503
vt 0.351493 0.511503
vt 0.351494 0.738497
vt 0.148507 0.738497
vt 0.377375 0.773507
vt 0.622625 0.773507
vt 0.622625 0.976493
vt 0.377375 0.976494
vt 0.377375 0.511503
vt 0.622625 0.511503
vt 0.622625 0.738497
vt 0.377375 0.738497
vt 0.148507 0.511503
vt 0.351493 0.511503
vt 0.351494 0.738497
vt 0.148507 0.738497
vt 0.648506 0.511503
vt 0.851493 0.511503
vt 0.851493 0.738497
vt 0.648507 0.738497
vt 0.377375 0.011503
vt 0.622625 0.011503
vt 0.622625 0.238497
vt 0.377375 0.238497
vt 0.377375 0.273507
vt 0.622625 0.273506
vt 0.622625 0.476493
vt 0.377375 0.476494
vt 0.377375 0.773507
vt 0.622625 0.773507
vt 0.622625 0.976493
vt 0.377375 0.976494
vt 0.377375 0.511503
vt 0.622625 0.511503
vt 0.622625 0.738497
vt 0.377375 0.738497
vt 0.139694 0.518439
vt 0.360306 0.518439
vt 0.360306 0.731561
vt 0.139694 0.731561
vt 0.648506 0.511503
vt 0.851493 0.511503
vt 0.851493 0.738497
vt 0.648507 0.738497
vt 0.377375 0.011503
vt 0.622625 0.011503
vt 0.622625 0.238497
vt 0.377375 0.238497
vt 0.377375 0.273507
vt 0.622625 0.273506
vt 0.622625 0.476493
vt 0.377375 0.476494
vt 0.379883 0.764694
vt 0.620117 0.764694
vt 0.620117 0.985306
vt 0.379883 0.985306
vt 0.379883 0.518439
vt 0.620117 0.518439
vt 0.620117 0.731561
vt 0.379883 0.731561
vt 0.639694 0.518439
vt 0.860306 0.518439
vt 0.860306 0.731561
vt 0.639694 0.731561
vt 0.379883 0.018439
vt 0.620117 0.018439
vt 0.620117 0.231561
vt 0.379883 0.231561
vt 0.379883 0.264694
vt 0.620117 0.264694
vt 0.620117 0.485306
vt 0.379883 0.485306
vt 0.625000 0.507458
vt 0.625000 0.507458
vt 0.621922 0.500000
vt 0.347099 0.500000
vt 0.375000 0.507458
vt 0.625000 0.777901
vt 0.625000 0.777901
vt 0.621922 0.750000
vt 0.375000 0.742542
vt 0.375000 0.742542
vt 0.378078 0.750000
vt 0.847099 0.500000
vt 0.875000 0.507458
vt 0.125000 0.507458
vt 0.152901 0.500000
vt 0.625000 0.972099
vt 0.621922 1.000000
vt 0.375000 0.972099
vt 0.375000 0.972099
vt 0.378078 1.000000
vt 0.148507 0.750000
vt 0.125000 0.738497
vt 0.625000 0.976493
vt 0.622625 1.000000
vt 0.125000 0.511503
vt 0.148507 0.500000
vt 0.625000 0.273507
vt 0.625000 0.273507
vt 0.622625 0.250000
vt 0.375000 0.738497
vt 0.351493 0.750000
vt 0.625000 0.773507
vt 0.625000 0.773507
vt 0.622625 0.750000
vt 0.351493 0.500000
vt 0.375000 0.511503
vt 0.625000 0.511503
vt 0.625000 0.511503
vt 0.622625 0.500000
vt 0.148507 0.750000
vt 0.125000 0.738497
vt 0.625000 0.976493
vt 0.622625 1.000000
vt 0.125000 0.511503
vt 0.148507 0.500000
vt 0.625000 0.273507
vt 0.625000 0.273507
vt 0.622625 0.250000
vt 0.375000 0.738497
vt 0.351493 0.750000
vt 0.625000 0.773507
vt 0.625000 0.773507
vt 0.622625 0.750000
vt 0.351493 0.500000
vt 0.375000 0.511503
vt 0.625000 0.511503
vt 0.625000 0.511503
vt 0.622625 0.500000
vt 0.375000 0.985306
vt 0.375000 0.985306
vt 0.379883 1.000000
vt 0.625000 0.985306
vt 0.620117 1.000000
vt 0.125000 0.518439
vt 0.139694 0.500000
vt 0.860306 0.500000
vt 0.875000 0.518439
vt 0.375000 0.731561
vt 0.375000 0.731561
vt 0.379883 0.750000
vt 0.625000 0.764694
vt 0.625000 0.764694
vt 0.620117 0.750000
vt 0.360306 0.500000
vt 0.375000 0.518439
vt 0.625000 0.518439
vt 0.625000 0.518439
vt 0.620117 0.500000
vt 0.375000 0.777901
vt 0.378079 0.742542
vt 0.621921 0.742542
vt 0.621921 0.507458
vt 0.378078 0.507458
vt 0.652901 0.500000
vt 0.875000 0.742542
vt 0.125000 0.742542
vt 0.377375 0.000000
vt 0.622625 0.000000
vt 0.625000 0.011503
vt 0.625000 0.238497
vt 0.625000 0.476493
vt 0.377375 0.000000
vt 0.622625 0.000000
vt 0.625000 0.011503
vt 0.625000 0.238497
vt 0.625000 0.476493
vt 0.125000 0.731561
vt 0.875000 0.731561
vt 0.639694 0.500000
vt 0.375000 0.764694
vn -1.0000 0.0000 0.0000
vn 0.0000 0.0000 1.0000
vn 0.0000 1.0000 0.0000
vn 0.0000 0.0000 -1.0000
vn 1.0000 0.0000 -0.0000
vn 0.0000 -1.0000 0.0000
vn 0.5774 -0.5773 -0.5774
vn -0.5774 -0.5773 -0.5774
vn 0.5774 -0.5774 0.5773
vn -0.5774 -0.5774 0.5773
vn 0.5774 0.5773 -0.5774
vn -0.5774 0.5773 -0.5774
vn 0.5774 0.5774 0.5773
vn -0.5774 0.5774 0.5773
vn -0.5773 -0.5773 0.5774
vn -0.5773 0.5773 0.5774
vn -0.5773 -0.5773 -0.5774
vn -0.5773 0.5773 -0.5774
vn 0.5774 -0.5773 0.5774
vn 0.5773 0.5773 0.5774
vn 0.5773 0.5773 -0.5774
vn -0.5773 -0.5774 0.5774
vn -0.5773 -0.5774 -0.5774
vn -0.5774 0.5774 -0.5773
vn 0.5774 -0.5773 0.5773
vn -0.5774 -0.5773 -0.5773
vn 0.5773 -0.5773 -0.5774
vn 0.7071 0.0000 0.7071
vn -0.7071 0.0000 0.7071
vn 0.0000 -0.7071 0.7071
vn 0.7071 -0.7071 -0.0000
vn -0.7071 -0.7071 -0.0000
vn 0.0000 -0.7071 -0.7071
vn 0.7071 0.0000 -0.7071
vn -0.7071 0.0000 -0.7071
vn 0.0000 0.7071 -0.7071
vn 0.7071 0.7071 0.0000
vn 0.0000 0.7071 0.7071
vn -0.7071 0.7071 0.0000
g Cube.001_Cube.001_None
usemtl None
s off
f 16/1/1 4/2/1 10/3/1 22/4/1
f 12/5/2 8/6/2 19/7/2 23/8/2
f 24/9/3 21/10/3 15/11/3 17/12/3
f 18/13/4 14/14/4 3/15/4 5/16/4
f 1/17/5 13/18/5 20/19/5 7/20/5
f 31/21/6 43/22/6 37/23/6 25/24/6
f 39/25/2 41/26/2 28/27/2 26/28/2
f 45/29/5 47/30/5 42/31/5 38/32/5
f 55/33/6 67/34/6 61/35/6 49/36/6
f 46/37/3 34/38/3 29/39/3 40/40/3
f 27/41/1 30/42/1 36/43/1 32/44/1
f 33/45/4 35/46/4 48/47/4 44/48/4
f 63/49/2 65/50/2 52/51/2 50/52/2
f 69/53/5 71/54/5 66/55/5 62/56/5
f 79/57/1 91/58/1 85/59/1 73/60/1
f 70/61/3 58/62/3 53/63/3 64/64/3
f 51/65/1 54/66/1 60/67/1 56/68/1
f 57/69/4 59/70/4 72/71/4 68/72/4
f 87/73/2 89/74/2 76/75/2 74/76/2
f 93/77/6 95/78/6 90/79/6 86/80/6
f 94/81/5 82/82/5 77/83/5 88/84/5
f 75/85/3 78/86/3 84/87/3 80/88/3
f 81/89/4 83/90/4 96/91/4 92/92/4
f 1/93/7 2/94/7 3/95/7
f 4/2/8 5/96/8 6/97/8
f 7/98/9 8/99/9 9/100/9
f 10/101/10 11/102/10 12/103/10
f 13/18/11 14/104/11 15/105/11
f 16/1/12 17/106/12 18/107/12
f 19/7/13 20/108/13 21/109/13
f 22/110/14 23/111/14 24/112/14
f 25/24/15 26/113/15 27/114/15
f 28/27/16 29/115/16 30/116/16
f 31/21/17 32/117/17 33/118/17
f 34/119/18 35/120/18 36/121/18
f 37/23/19 38/122/19 39/123/19
f 40/124/20 41/125/20 42/126/20
f 43/22/7 44/127/7 45/128/7
f 46/129/21 47/130/21 48/131/21
f 49/36/22 50/132/22 51/133/22
f 52/51/16 53/134/16 54/135/16
f 55/33/23 56/136/23 57/137/23
f 58/138/18 59/139/18 60/140/18
f 61/35/19 62/141/19 63/142/19
f 64/143/20 65/144/20 66/145/20
f 67/34/7 68/146/7 69/147/7
f 70/148/21 71/149/21 72/150/21
f 73/151/16 74/152/16 75/153/16
f 76/75/20 77/154/20 78/155/20
f 79/57/24 80/156/24 81/157/24
f 82/82/21 83/158/21 84/159/21
f 85/160/10 86/161/10 87/162/10
f 88/163/25 89/164/25 90/165/25
f 91/58/26 92/166/26 93/167/26
f 94/168/27 95/169/27 96/170/27
f 7/98/28 20/108/28 19/7/28 8/6/28
f 22/110/29 10/171/29 12/5/29 23/8/29
f 8/6/30 12/5/30 11/172/30 9/173/30
f 1/17/31 7/20/31 9/173/31 2/174/31
f 10/3/32 4/2/32 6/175/32 11/172/32
f 2/174/33 6/175/33 5/16/33 3/15/33
f 13/18/34 1/17/34 3/176/34 14/104/34
f 4/2/35 16/1/35 18/107/35 5/96/35
f 14/14/36 18/13/36 17/12/36 15/11/36
f 20/19/37 13/18/37 15/105/37 21/177/37
f 23/8/38 19/7/38 21/109/38 24/112/38
f 16/1/39 22/4/39 24/178/39 17/106/39
f 31/21/32 25/24/32 27/114/32 32/117/32
f 26/179/29 28/180/29 30/42/29 27/41/29
f 29/181/39 34/182/39 36/43/39 30/42/39
f 35/46/35 33/45/35 32/44/35 36/43/35
f 43/22/33 31/21/33 33/118/33 44/127/33
f 34/119/36 46/183/36 48/47/36 35/46/36
f 47/30/34 45/29/34 44/48/34 48/47/34
f 37/23/31 43/22/31 45/29/31 38/32/31
f 46/37/37 40/40/37 42/31/37 47/30/37
f 41/26/28 39/25/28 38/32/28 42/31/28
f 25/24/30 37/23/30 39/123/30 26/113/30
f 40/124/38 29/115/38 28/27/38 41/26/38
f 55/33/32 49/36/32 51/133/32 56/136/32
f 50/184/29 52/185/29 54/66/29 51/65/29
f 53/186/39 58/187/39 60/67/39 54/66/39
f 59/70/35 57/69/35 56/68/35 60/67/35
f 67/34/33 55/33/33 57/137/33 68/146/33
f 58/138/36 70/188/36 72/71/36 59/70/36
f 71/54/34 69/53/34 68/72/34 72/71/34
f 61/35/31 67/34/31 69/53/31 62/56/31
f 70/61/37 64/64/37 66/55/37 71/54/37
f 65/50/28 63/49/28 62/56/28 66/55/28
f 49/36/30 61/35/30 63/142/30 50/132/30
f 64/143/38 53/134/38 52/51/38 65/50/38
f 79/57/39 73/60/39 75/189/39 80/156/39
f 74/76/38 76/75/38 78/155/38 75/153/38
f 77/83/37 82/82/37 84/159/37 78/190/37
f 83/90/36 81/89/36 80/88/36 84/87/36
f 91/58/35 79/57/35 81/157/35 92/166/35
f 82/82/34 94/81/34 96/191/34 83/158/34
f 95/78/33 93/77/33 92/92/33 96/91/33
f 85/59/32 91/58/32 93/77/32 86/80/32
f 94/81/31 88/84/31 90/79/31 95/78/31
f 89/74/30 87/73/30 86/80/30 90/79/30
f 73/151/29 85/192/29 87/73/29 74/76/29
f 88/163/28 77/154/28 76/75/28 89/74/28
f 6/175/6 2/174/6 9/173/6 11/172/6
